<?xml version="1.0" encoding="UTF-8"?>
<svg version="1.1" xmlns="http://www.w3.org/2000/svg" width="360" height="360">
<path d="M0 0 C14.6984482 12.1659453 18.74129936 28.9886211 22.02514648 46.94784546 C28.25325744 80.77517191 39.4042143 107.94642509 60.64794922 135.10693359 C68.4255224 145.05243955 75.69409589 155.04881143 82 166 C82.51506104 166.87615967 82.51506104 166.87615967 83.04052734 167.77001953 C95.05196725 188.5457736 100.71955225 213.74174246 107.08105469 236.703125 C108.69051566 242.47734418 110.34682009 248.23816589 112 254 C111.34 254.66 110.68 255.32 110 256 C109.30466263 267.60175382 113.02478281 280.21649768 115.0625 291.5625 C115.62844124 294.73181902 116.19280411 297.90140069 116.7542572 301.07151794 C117.10196822 303.03301266 117.45242078 304.99402382 117.80592346 306.95448303 C118.04133095 308.27747658 118.04133095 308.27747658 118.28149414 309.62719727 C118.49014854 310.78869041 118.49014854 310.78869041 118.70301819 311.97364807 C119 314 119 314 119 317 C19.01 317 -80.98 317 -184 317 C-183.37270369 309.47244425 -182.69736298 302.3763192 -181.28515625 295.0234375 C-181.02823753 293.65403015 -181.02823753 293.65403015 -180.76612854 292.25695801 C-180.20636954 289.29469109 -179.63552923 286.33472666 -179.0625 283.375 C-178.86702576 282.35553284 -178.67155151 281.33606567 -178.47015381 280.28570557 C-174.88739431 261.66238616 -170.68683683 243.21976612 -166.1640625 224.8046875 C-165.88202217 223.65303604 -165.88202217 223.65303604 -165.59428406 222.4781189 C-164.74673662 219.02114427 -163.89068648 215.56703891 -163.01074219 212.11816406 C-162.72618164 210.96799805 -162.44162109 209.81783203 -162.1484375 208.6328125 C-161.775979 207.16545654 -161.775979 207.16545654 -161.39599609 205.66845703 C-160.96902447 202.79126846 -161.41952699 200.82296473 -162 198 C-161.59790039 195.75854492 -161.59790039 195.75854492 -160.84765625 193.48046875 C-160.57010498 192.63081543 -160.29255371 191.78116211 -160.0065918 190.90576172 C-159.53926636 189.56022217 -159.53926636 189.56022217 -159.0625 188.1875 C-158.7425708 187.25695801 -158.4226416 186.32641602 -158.09301758 185.36767578 C-151.65345498 167.1558122 -143.56695067 153.69697448 -126.98046875 143.0703125 C-115.78648871 135.29467761 -110.30639489 121.6689555 -105.80371094 109.22070312 C-105.24397117 107.67410747 -104.67347505 106.13138024 -104.09472656 104.59179688 C-99.18369117 91.4391965 -95.82507948 78.21953798 -93 64.5 C-82.06527809 11.5074709 -82.06527809 11.5074709 -62.484375 -2.84375 C-42.57734789 -15.30090807 -18.95736811 -13.50161392 0 0 Z " fill="#C5B2AB" transform="translate(214,43)"/>
<path d="M0 0 C11.66483502 9.65501548 17.38510165 22.26659424 20 37 C19.34 37 18.68 37 18 37 C19.14428657 44.4077499 20.49319076 51.77054193 21.9375 59.125 C22.10886475 60.00075684 22.28022949 60.87651367 22.45678711 61.77880859 C23.32750336 66.10171642 24.31245188 70.21890337 25.8125 74.375 C27.47156969 79.41398294 26.73371762 84.03178919 26.1953125 89.23828125 C25.86450697 95.60959576 26.93654155 101.72471627 28 108 C28.99 106.515 28.99 106.515 30 105 C30.65537907 107.14293716 31.29879288 109.28953478 31.9375 111.4375 C32.47697266 113.22994141 32.47697266 113.22994141 33.02734375 115.05859375 C35.42344454 124.09249532 35.12422397 133.28016379 35.0625 142.5625 C35.05798828 143.85736328 35.05347656 145.15222656 35.04882812 146.48632812 C35.03712601 149.657601 35.02073113 152.82877546 35 156 C34.34 156.33 33.68 156.66 33 157 C29.0044376 141.72618345 27.11031667 126.00890786 25.73413086 110.30419922 C25.29771602 105.65563405 24.35189432 101.48930942 23 97 C22.45790043 94.45755304 21.95245962 91.93268784 21.5 89.375 C21.37109375 88.65497803 21.2421875 87.93495605 21.109375 87.19311523 C19.94249341 80.32674639 19.30103463 73.42998319 18.82226562 66.48388672 C18.34886895 60.45745327 17.36827221 54.60269181 15 49 C14.34 48.67 13.68 48.34 13 48 C11.95971031 51.38094149 11.84327223 54.47362528 12 58 C12.33 58.33 12.66 58.66 13 59 C15.08103391 84.89286417 5.5133811 113.06456884 -11 133 C-11.68964844 133.88300781 -12.37929687 134.76601562 -13.08984375 135.67578125 C-19.12251235 143.29653697 -25.54233203 150.08275118 -34 155 C-34.99 155 -35.98 155 -37 155 C-37 155.66 -37 156.32 -37 157 C-58.37354579 166.66578642 -78.28377257 170.02112018 -101.45703125 164.65625 C-109.10357249 163.2399116 -115.85430137 163.93755773 -123 167 C-122.67 165.68 -122.34 164.36 -122 163 C-131.03337764 163.0283178 -137.99696742 163.97739198 -145 170 C-150.69322547 176.23245167 -153.22618988 184.17037994 -156 192 C-156.60083053 193.60541918 -157.20439214 195.20982321 -157.8125 196.8125 C-158.204375 197.864375 -158.59625 198.91625 -159 200 C-159.99 199.67 -160.98 199.34 -162 199 C-155.98584073 176.60626408 -148.39325279 155.98867811 -127.375 143.625 C-108.83240518 132.07133869 -101.3852432 100.86086018 -96.44274902 80.73034668 C-94.98241337 74.42367341 -93.68555311 68.08257027 -92.38674927 61.74108887 C-82.0713988 11.51195689 -82.0713988 11.51195689 -62.484375 -2.84375 C-42.57734789 -15.30090807 -18.95736811 -13.50161392 0 0 Z " fill="#BFACA4" transform="translate(214,43)"/>
<path d="M0 0 C-1.93420938 6.48529028 -4.49858863 12.40645658 -7.57446289 18.41821289 C-8.0210022 19.3268811 -8.0210022 19.3268811 -8.4765625 20.25390625 C-8.74549316 20.78314697 -9.01442383 21.3123877 -9.29150391 21.85766602 C-11.35590824 28.09996376 -11.15921674 34.90045964 -11.16796875 41.40625 C-11.17129715 42.28921753 -11.17462555 43.17218506 -11.17805481 44.08190918 C-11.18309254 45.94424931 -11.18546412 47.80659837 -11.18530273 49.66894531 C-11.18747233 52.46435163 -11.2056153 55.25935166 -11.22460938 58.0546875 C-11.25396294 67.72676927 -10.87432605 77.08699644 -9.43701172 86.65771484 C-8.91326291 90.66336917 -8.87928508 94.54054185 -9.02734375 98.5703125 C-8.9948333 101.45909847 -8.47769718 104.15150941 -8 107 C-7.8522229 109.39453634 -7.72931768 111.79067706 -7.625 114.1875 C-7.28809713 120.43417942 -6.59297099 126.5700209 -5.625 132.75 C-5.45411865 133.86411255 -5.45411865 133.86411255 -5.27978516 135.00073242 C-4.21843907 141.48287886 -2.60904654 147.56381385 -1 154 C-21.13 154 -41.26 154 -62 154 C-61.37270314 146.47243763 -60.69734535 139.37632552 -59.28515625 132.0234375 C-59.02830551 130.65423409 -59.02830551 130.65423409 -58.76626587 129.25737 C-58.20652569 126.29495205 -57.63566517 123.33484795 -57.0625 120.375 C-56.86669342 119.35453583 -56.67088684 118.33407166 -56.46914673 117.28268433 C-52.45787966 96.44932161 -47.68966642 75.82418144 -42.55786133 55.24124146 C-41.99079828 52.96303152 -41.42858816 50.68366401 -40.8671875 48.40405273 C-40.50925756 46.95683312 -40.15119103 45.50964728 -39.79296875 44.0625 C-39.47996826 42.79664063 -39.16696777 41.53078125 -38.84448242 40.2265625 C-37.8250006 36.33136973 -36.53406194 32.71229708 -35 29 C-34.35224609 27.25396484 -34.35224609 27.25396484 -33.69140625 25.47265625 C-29.77241327 15.00114874 -25.96295785 6.75102199 -15.87890625 1.0546875 C-10.67832975 -0.85054405 -5.44815568 -0.46112916 0 0 Z " fill="#272525" transform="translate(92,206)"/>
<path d="M0 0 C5.55875253 4.51423531 12.19297912 11.02664587 13.20922852 18.35961914 C13.22268311 19.39723389 13.2361377 20.43484863 13.25 21.50390625 C13.27642578 22.64279297 13.30285156 23.78167969 13.33007812 24.95507812 C13.34361328 26.13521484 13.35714844 27.31535156 13.37109375 28.53125 C13.4055631 30.87644241 13.44818693 33.22153291 13.5 35.56640625 C13.51232666 36.60289307 13.52465332 37.63937988 13.53735352 38.70727539 C13.81080028 41.49121453 14.57084801 43.01728284 15.80859375 45.46875 C15.47859375 46.45875 15.14859375 47.44875 14.80859375 48.46875 C15.13085938 49.32984375 15.453125 50.1909375 15.78515625 51.078125 C17.12732437 55.52469723 16.72416468 59.1554304 16.18359375 63.71875 C16.08949219 64.56195801 15.99539062 65.40516602 15.8984375 66.27392578 C15.12002017 72.50006312 13.61209686 77.83984141 10.80859375 83.46875 C10.51855469 84.29632813 10.22851562 85.12390625 9.9296875 85.9765625 C6.70078142 93.15440947 -1.34822632 97.73911973 -8.3671875 100.6171875 C-15.434582 102.74815846 -21.17329177 102.26883744 -27.81640625 99.09375 C-32.00998076 96.83160097 -32.00998076 96.83160097 -33.19140625 94.46875 C-33.93390625 94.05625 -34.67640625 93.64375 -35.44140625 93.21875 C-38.87152029 91.03595016 -41.46969341 89.17344728 -43.19140625 85.46875 C-43.90390352 80.80371316 -44.12035844 76.18374111 -44.19140625 71.46875 C-45.18140625 71.13875 -46.17140625 70.80875 -47.19140625 70.46875 C-47.88671875 68.61328125 -47.88671875 68.61328125 -48.31640625 66.28125 C-48.46335938 65.52457031 -48.6103125 64.76789063 -48.76171875 63.98828125 C-48.90351563 63.15683594 -49.0453125 62.32539063 -49.19140625 61.46875 C-49.36671875 60.56511719 -49.54203125 59.66148438 -49.72265625 58.73046875 C-51.56712795 45.89601982 -50.68280243 34.32078346 -45.19140625 22.46875 C-44.91844727 21.85596191 -44.64548828 21.24317383 -44.36425781 20.61181641 C-39.69568569 10.18106048 -35.16273568 2.79953793 -24.19140625 -1.53125 C-16.80861754 -3.90768413 -6.75741179 -4.06897914 0 0 Z " fill="#EDB4AC" transform="translate(196.19140625,66.53125)"/>
<path d="M0 0 C0.99 0 1.98 0 3 0 C4.30684681 7.37953494 5.61094024 14.75955192 6.91151428 22.14019489 C7.5155004 25.567256 8.12043594 28.99414387 8.72753906 32.4206543 C9.42535069 36.35936838 10.11903615 40.29879934 10.8125 44.23828125 C11.03123779 45.46960281 11.24997559 46.70092438 11.4753418 47.96955872 C11.67554932 49.11051498 11.87575684 50.25147125 12.08203125 51.42700195 C12.34850464 52.93590752 12.34850464 52.93590752 12.62036133 54.47529602 C13 57 13 57 13 60 C-6.47 60 -25.94 60 -46 60 C-46 45.34591195 -46 45.34591195 -41.75 40 C-41.30543457 39.42950928 -40.86086914 38.85901855 -40.40283203 38.27124023 C-38.97573607 36.47539137 -37.50133156 34.73412991 -36 33 C-35.49758789 32.41621582 -34.99517578 31.83243164 -34.47753906 31.23095703 C-28.75118273 24.65969854 -22.75277828 18.52637685 -16 13 C-15.44570313 12.51917969 -14.89140625 12.03835938 -14.3203125 11.54296875 C-12.27728353 9.77945867 -10.37540164 8.18201292 -7.9375 7 C-5.09090564 5.53079001 -3.18854109 3.30684061 -1 1 C-0.67 0.67 -0.34 0.34 0 0 Z " fill="#21201F" transform="translate(320,300)"/>
<path d="M0 0 C0.76441406 -0.01611328 1.52882812 -0.03222656 2.31640625 -0.04882812 C7.90309656 -0.05357065 11.99216257 1.1143188 17.125 3.3125 C18.2078125 3.68375 18.2078125 3.68375 19.3125 4.0625 C22.31768196 6.13503928 24.31566055 9.16840194 26.125 12.3125 C26.125 12.9725 26.125 13.6325 26.125 14.3125 C27.115 14.6425 28.105 14.9725 29.125 15.3125 C31.42133824 18.75700737 31.66516485 21.25062283 32.125 25.3125 C32.785 24.6525 33.445 23.9925 34.125 23.3125 C36.31105079 30.27390444 38.4533814 37.20812096 40.125 44.3125 C41.445 43.6525 42.765 42.9925 44.125 42.3125 C45.93794606 44.12544606 45.34137857 46.80404109 45.375 49.25 C45.14172846 70.20202586 38.73222258 89.35437545 28.125 107.3125 C27.795 106.6525 27.465 105.9925 27.125 105.3125 C28.05995102 102.60114203 29.05157921 99.96804969 30.125 97.3125 C33.08590552 90.03764534 33.08590552 90.03764534 34.125 82.3125 C33.57070312 83.16714844 33.01640625 84.02179688 32.4453125 84.90234375 C31.71378657 86.01838973 30.98200229 87.1342664 30.25 88.25 C29.53070313 89.35214844 28.81140625 90.45429688 28.0703125 91.58984375 C26.125 94.3125 26.125 94.3125 24.125 95.3125 C24.75636568 87.98865814 24.75636568 87.98865814 26.5859375 84.6328125 C28.56363036 80.36621623 28.99329743 76.45676432 29.4375 71.8125 C29.53611328 70.98363281 29.63472656 70.15476562 29.73632812 69.30078125 C30.24025422 64.38652525 29.98732855 60.98629753 28.125 56.3125 C28.43978446 54.97466607 28.77087656 53.64046291 29.125 52.3125 C28.80877686 51.72742676 28.49255371 51.14235352 28.16674805 50.53955078 C26.88182674 47.79264378 26.91577593 45.82923419 26.95703125 42.8046875 C26.94994141 41.73476562 26.94285156 40.66484375 26.93554688 39.5625 C26.93683545 37.33584041 26.95725794 35.10909884 26.99804688 32.8828125 C26.88222881 23.6614883 23.90351939 18.20474192 17.5144043 11.66357422 C11.34332694 6.15805397 5.53882747 5.93375662 -2.42578125 6.05859375 C-10.13947788 6.62641966 -16.73318078 9.89346144 -22 15.625 C-26.33585475 21.83972514 -29.28901823 28.21334091 -31.875 35.3125 C-32.13087891 35.9732251 -32.38675781 36.6339502 -32.65039062 37.31469727 C-34.66961987 42.8250108 -35.35335395 47.64955857 -35.25 53.5 C-35.24274902 54.31718506 -35.23549805 55.13437012 -35.22802734 55.97631836 C-35.13296695 68.60722597 -35.13296695 68.60722597 -29.875 79.3125 C-29.56382371 81.53395298 -29.32444486 83.76574268 -29.125 86 C-28.39801431 91.62548453 -27.49113336 95.03223889 -23.5078125 99.078125 C-21.72115351 100.428805 -19.90739127 101.37988755 -17.875 102.3125 C-17.875 102.9725 -17.875 103.6325 -17.875 104.3125 C-17.27171875 104.49425781 -16.6684375 104.67601562 -16.046875 104.86328125 C-8.10874341 107.35995167 -8.10874341 107.35995167 -4.875 110.3125 C-11.01654225 109.72759121 -16.88179849 108.77183748 -22.875 107.3125 C-22.875 106.3225 -22.875 105.3325 -22.875 104.3125 C-23.6175 104.209375 -24.36 104.10625 -25.125 104 C-28.1273385 103.24941538 -29.46952252 102.20772468 -31.875 100.3125 C-33.4528125 99.5390625 -33.4528125 99.5390625 -35.0625 98.75 C-37.875 97.3125 -37.875 97.3125 -38.875 95.3125 C-39.00469742 93.43909287 -39.10438382 91.56355101 -39.1875 89.6875 C-39.62489148 83.95357103 -41.01635687 80.20729947 -43.875 75.3125 C-47.66576218 68.19626775 -48.9377845 61.29116356 -49.875 53.3125 C-48.555 53.6425 -47.235 53.9725 -45.875 54.3125 C-45.875 54.9725 -45.875 55.6325 -45.875 56.3125 C-45.215 56.3125 -44.555 56.3125 -43.875 56.3125 C-43.875 54.6625 -43.875 53.0125 -43.875 51.3125 C-43.215 51.3125 -42.555 51.3125 -41.875 51.3125 C-41.97941406 50.38244141 -41.97941406 50.38244141 -42.0859375 49.43359375 C-42.87097453 36.59263089 -36.77519865 25.07659833 -28.875 15.3125 C-28.23820312 14.52488281 -27.60140625 13.73726562 -26.9453125 12.92578125 C-23.57147761 8.91497753 -23.57147761 8.91497753 -21.875 7.3125 C-21.215 7.3125 -20.555 7.3125 -19.875 7.3125 C-19.875 6.6525 -19.875 5.9925 -19.875 5.3125 C-13.57098695 0.86260843 -7.49292529 -0.03127264 0 0 Z " fill="#A78F87" transform="translate(181.875,58.6875)"/>
<path d="M0 0 C0.66 0 1.32 0 2 0 C2.11069824 0.7206665 2.22139648 1.44133301 2.33544922 2.18383789 C2.84403211 5.47745456 3.3594561 8.76996605 3.875 12.0625 C4.04902344 13.19623047 4.22304688 14.32996094 4.40234375 15.49804688 C5.29156997 21.1462801 6.393614 26.50781071 8 32 C8.72336563 35.65372711 9.32907775 39.32561272 9.9375 43 C11.03526253 49.50849164 12.17100889 55.98537541 13.5625 62.4375 C16.56954493 77.16051781 18.18334353 92.23514975 18.69140625 107.24609375 C18.79324219 108.15488281 18.89507812 109.06367188 19 110 C19.66 110.33 20.32 110.66 21 111 C20.25943359 111.94359375 20.25943359 111.94359375 19.50390625 112.90625 C15.40053589 118.38841885 13.12767097 122.10576775 13 129 C12.690625 128.360625 12.38125 127.72125 12.0625 127.0625 C11.1654837 125.06389179 11.1654837 125.06389179 10 124 C9.87845122 122.61291398 9.82029625 121.22017607 9.7890625 119.828125 C9.76070313 118.93351562 9.73234375 118.03890625 9.703125 117.1171875 C9.65317439 115.28400012 9.60839649 113.45065979 9.5703125 111.6171875 C9.35254132 105.13849494 8.59143537 98.8412382 7.625 92.44140625 C5.86758246 80.74129605 4.74907196 69.00481842 3.69238281 57.22338867 C3.37376574 53.67374941 3.04689222 50.12494207 2.71875 46.57617188 C-0.26715821 14.01096404 -0.26715821 14.01096404 0 0 Z " fill="#9C887F" transform="translate(261,226)"/>
<path d="M0 0 C10.30600829 6.97171149 14.12770028 19.31620499 16.63671875 30.953125 C16.75660156 31.62859375 16.87648437 32.3040625 17 33 C16.34 33 15.68 33 15 33 C16.14428657 40.4077499 17.49319076 47.77054193 18.9375 55.125 C19.10886475 56.00075684 19.28022949 56.87651367 19.45678711 57.77880859 C20.32750336 62.10171642 21.31245188 66.21890337 22.8125 70.375 C24.47156969 75.41398294 23.73371762 80.03178919 23.1953125 85.23828125 C22.86450697 91.60959576 23.93654155 97.72471627 25 104 C25.66 103.01 26.32 102.02 27 101 C27.65537907 103.14293716 28.29879288 105.28953478 28.9375 107.4375 C29.29714844 108.63246094 29.65679687 109.82742187 30.02734375 111.05859375 C32.42344454 120.09249532 32.12422397 129.28016379 32.0625 138.5625 C32.05798828 139.85736328 32.05347656 141.15222656 32.04882812 142.48632812 C32.03712601 145.657601 32.02073113 148.82877546 32 152 C31.34 152.33 30.68 152.66 30 153 C26.0044376 137.72618345 24.11031667 122.00890786 22.73413086 106.30419922 C22.29771602 101.65563405 21.35189432 97.48930942 20 93 C19.45790043 90.45755304 18.95245962 87.93268784 18.5 85.375 C18.37109375 84.65497803 18.2421875 83.93495605 18.109375 83.19311523 C16.94249341 76.32674639 16.30103463 69.42998319 15.82226562 62.48388672 C15.35516183 56.53756293 14.576026 50.44309341 12 45 C11.01 44.67 10.02 44.34 9 44 C8.89042969 42.91203125 8.78085938 41.8240625 8.66796875 40.703125 C7.7352838 31.89890066 6.33479743 23.55671708 4 15 C3.63575577 13.37722917 3.28080693 11.75232891 2.9375 10.125 C2.18618261 6.65883824 1.19973707 3.34212469 0 0 Z " fill="#8B756D" transform="translate(217,47)"/>
<path d="M0 0 C0.12375 0.639375 0.2475 1.27875 0.375 1.9375 C0.58125 2.618125 0.7875 3.29875 1 4 C1.66 4.33 2.32 4.66 3 5 C0.95406783 14.08698596 -1.21777503 23.0386561 -4.0546875 31.91796875 C-5.33321018 36.08637533 -6.3696695 40.30041031 -7.38671875 44.5390625 C-8 47 -8 47 -9 50 C-9.66 50 -10.32 50 -11 50 C-11.0515625 50.56203125 -11.103125 51.1240625 -11.15625 51.703125 C-12.44716818 61.26765519 -16.34464586 69.80785853 -20.03466797 78.64208984 C-21.4366059 82.0664491 -22.72235718 85.52753502 -24 89 C-24.66 89 -25.32 89 -26 89 C-26.103125 89.928125 -26.20625 90.85625 -26.3125 91.8125 C-27 95 -27 95 -28.40625 96.33984375 C-30.55936357 98.58267039 -31.17674991 100.8162705 -32.1875 103.75 C-35.06409358 111.57680522 -38.94679797 118.72837453 -43 126 C-43.66 126 -44.32 126 -45 126 C-46 123 -46 123 -45.20703125 121.08984375 C-44.60955078 120.05537109 -44.60955078 120.05537109 -44 119 C-39.09480705 109.65431658 -35.28722984 100.02680152 -32 90 C-31.34 90 -30.68 90 -30 90 C-29.896875 89.360625 -29.79375 88.72125 -29.6875 88.0625 C-28.60403222 83.23614353 -27.20046156 78.38722964 -24.97265625 73.95703125 C-23.54963627 71.09384647 -22.82884468 68.07856595 -22 65 C-21.34 65 -20.68 65 -20 65 C-19.9175 63.88625 -19.835 62.7725 -19.75 61.625 C-19.21653875 57.28110125 -17.74284406 53.69827963 -16.03515625 49.6953125 C-14.94647064 46.86062166 -14.23848221 44.08387071 -13.5625 41.125 C-12.06421558 34.75524438 -9.61749623 28.97918256 -7 23 C-4.47240582 17.06127208 -3.0097624 11.06674832 -1.6484375 4.7578125 C-1 2 -1 2 0 0 Z " fill="#B19D95" transform="translate(220,180)"/>
<path d="M0 0 C1.1147168 -0.0309375 1.1147168 -0.0309375 2.25195312 -0.0625 C7.52026942 -0.09943824 11.10392688 0.88012214 15.8125 3.25 C14.8225 3.58 13.8325 3.91 12.8125 4.25 C12.1525 3.92 11.4925 3.59 10.8125 3.25 C-0.19044619 2.49914278 -8.27115006 3.36009323 -17.1875 10.25 C-23.02120171 16.5984401 -26.27358759 24.25059028 -29.1875 32.25 C-29.44337891 32.9107251 -29.69925781 33.5714502 -29.96289062 34.25219727 C-31.98211987 39.7625108 -32.66585395 44.58705857 -32.5625 50.4375 C-32.55524902 51.25468506 -32.54799805 52.07187012 -32.54052734 52.91381836 C-32.44546695 65.54472597 -32.44546695 65.54472597 -27.1875 76.25 C-25.8038767 80.81595691 -26.09491528 85.52817937 -26.1875 90.25 C-32.97764511 82.70539432 -38.19512422 71.37223297 -39.1875 61.25 C-39.27515625 60.56421875 -39.3628125 59.8784375 -39.453125 59.171875 C-40.60515301 42.51983375 -32.33485934 22.08006041 -21.6875 9.625 C-18.13566766 5.92745146 -14.81759325 3.42330908 -10.1875 1.25 C-6.97932025 -0.35408988 -3.5207767 0.02380914 0 0 Z " fill="#DD7E6F" transform="translate(179.1875,61.75)"/>
<path d="M0 0 C1.41067153 4.23201459 -0.15902762 7.39860037 -1.4375 11.5 C-3.48556797 18.47369572 -4.88386367 24.68693617 -4 32 C-3.91621094 32.71671875 -3.83242187 33.4334375 -3.74609375 34.171875 C-2.24761071 42.81575609 1.68873473 52.07157337 7 59 C7 59.66 7 60.32 7 61 C7.66 61 8.32 61 9 61 C10.56958193 62.67721041 11.9480525 64.46794114 13.3671875 66.2734375 C15.11402358 68.12057039 16.67886222 69.00522667 19 70 C19 70.66 19 71.32 19 72 C19.60328125 72.18175781 20.2065625 72.36351562 20.828125 72.55078125 C28.76625659 75.04745167 28.76625659 75.04745167 32 78 C25.85845775 77.41509121 19.99320151 76.45933748 14 75 C14 74.01 14 73.02 14 72 C13.2575 71.896875 12.515 71.79375 11.75 71.6875 C8.7476615 70.93691538 7.40547748 69.89522468 5 68 C3.4221875 67.2265625 3.4221875 67.2265625 1.8125 66.4375 C-1 65 -1 65 -2 63 C-2.12969742 61.12659287 -2.22938382 59.25105101 -2.3125 57.375 C-2.74989148 51.64107103 -4.14135687 47.89479947 -7 43 C-10.79076218 35.88376775 -12.0627845 28.97866356 -13 21 C-11.68 21.33 -10.36 21.66 -9 22 C-9 22.66 -9 23.32 -9 24 C-8.34 24 -7.68 24 -7 24 C-7 22.35 -7 20.7 -7 19 C-6.34 19 -5.68 19 -5 19 C-5.103125 17.72125 -5.20625 16.4425 -5.3125 15.125 C-5.35907073 9.26640188 -2.89818838 4.95797226 0 0 Z " fill="#80645A" transform="translate(145,91)"/>
<path d="M0 0 C8.3425994 10.81123998 12.42654397 26.4478323 11 40 C10.25627746 44.09047395 9.21227484 48.02498721 8 52 C7.70996094 52.96421875 7.41992188 53.9284375 7.12109375 54.921875 C5.05470147 61.18157379 2.29533799 66.00309014 -2 71 C-2.81799864 68.67104845 -3.16383333 67.44262153 -2.29296875 65.08984375 C-1.92816406 64.37957031 -1.56335938 63.66929687 -1.1875 62.9375 C1.0254577 57.77907247 1.77125057 52.78322328 2.375 47.25 C2.47143799 46.43394287 2.56787598 45.61788574 2.66723633 44.77709961 C3.13526772 39.94604693 2.81280589 36.59525215 1 32 C1.31478446 30.66216607 1.64587656 29.32796291 2 28 C1.68434082 27.41766602 1.36868164 26.83533203 1.04345703 26.23535156 C-0.25508289 23.45354728 -0.22789111 21.42176451 -0.1953125 18.359375 C-0.18886719 17.28945312 -0.18242187 16.21953125 -0.17578125 15.1171875 C-0.15902344 14.00601563 -0.14226562 12.89484375 -0.125 11.75 C-0.11597656 10.62335938 -0.10695312 9.49671875 -0.09765625 8.3359375 C-0.07410658 5.55707635 -0.0412168 2.7786461 0 0 Z " fill="#E59481" transform="translate(209,83)"/>
<path d="M0 0 C0.33 0 0.66 0 1 0 C1.10546143 0.87624023 1.21092285 1.75248047 1.31958008 2.65527344 C1.7217615 5.96612345 2.13078847 9.27598845 2.54418945 12.58544922 C2.72035935 14.00667061 2.89394573 15.4282151 3.06469727 16.85009766 C4.0199234 24.7888392 5.24319771 32.48039066 7.31518555 40.22070312 C8.4246771 44.72353801 8.95579023 49.27534898 9.5 53.875 C10.29681806 60.38732764 11.31800209 66.59609659 13 72.9375 C14.26552439 78.36763271 14.26552439 78.36763271 13.109375 81.12109375 C11.75 82.875 11.75 82.875 10.28515625 84.40234375 C7.98120376 87.26652784 8.18810721 90.42596294 8 94 C7.690625 93.360625 7.38125 92.72125 7.0625 92.0625 C6.1654837 90.06389179 6.1654837 90.06389179 5 89 C4.82981969 86.05966248 4.71528135 83.13072479 4.625 80.1875 C4.17710975 68.00197537 3.12142865 55.88283257 2.01611328 43.74291992 C-0.01482625 21.0296525 -0.01482625 21.0296525 2 17 C1.34 17 0.68 17 0 17 C0.01160156 16.36191406 0.02320313 15.72382813 0.03515625 15.06640625 C0.04417969 14.24011719 0.05320312 13.41382813 0.0625 12.5625 C0.07990234 11.32693359 0.07990234 11.32693359 0.09765625 10.06640625 C0.23267348 8.00836062 0.23267348 8.00836062 -1 7 C-1.125 4 -1.125 4 -1 1 C-0.67 0.67 -0.34 0.34 0 0 Z " fill="#846F66" transform="translate(266,261)"/>
<path d="M0 0 C7.19272204 9.59029605 11.29851058 20.80033156 14.9375 32.125 C15.36185416 33.42196919 15.78650244 34.71884218 16.21142578 36.015625 C20.15781488 48.1508832 23.6741994 60.40632747 27.08105469 72.703125 C28.69051566 78.47734418 30.34682009 84.23816589 32 90 C28.75219225 93.37998597 25.47056968 95.50981011 21 97 C19.79117904 99.00016466 19.79117904 99.00016466 19 101 C18.34 100.67 17.68 100.34 17 100 C17.34933594 99.54109375 17.69867188 99.0821875 18.05859375 98.609375 C18.51363281 97.99578125 18.96867187 97.3821875 19.4375 96.75 C19.88996094 96.14671875 20.34242188 95.5434375 20.80859375 94.921875 C23.13140422 91.17491516 22.98758948 88.56532849 22.24609375 84.30859375 C21.92022025 81.25158997 22.04826935 78.26006209 22.125 75.1875 C22.16425513 69.86562622 21.61346398 65.65002071 19.8671875 60.65234375 C17.84095628 54.45499691 16 47.54031573 16 41 C15.34 41 14.68 41 14 41 C13.73445313 40.24074219 13.46890625 39.48148438 13.1953125 38.69921875 C12.84210938 37.70535156 12.48890625 36.71148437 12.125 35.6875 C11.77695312 34.70136719 11.42890625 33.71523437 11.0703125 32.69921875 C10.04694076 29.84405623 10.04694076 29.84405623 8 27 C5.09010302 21.52004801 3.47012749 17.226002 4 11 C2.68 10.67 1.36 10.34 0 10 C0 6.7 0 3.4 0 0 Z " fill="#8B766D" transform="translate(294,207)"/>
<path d="M0 0 C0.33 0 0.66 0 1 0 C4.27382319 13.8963346 5.87499705 27.87599652 7.25 42.0625 C7.33858276 42.94444031 7.42716553 43.82638062 7.51843262 44.73504639 C8.49222826 54.52952383 9.16619556 64.27503204 9.234375 74.12109375 C9.24963226 75.39292259 9.24963226 75.39292259 9.26519775 76.69044495 C9.25132904 80.63399256 9.23507039 82.64739441 7 86 C5.17405898 76.61764896 3.8007644 67.50099718 3.31640625 57.9375 C2.72303558 50.55333167 1.32637212 43.28253372 0 36 C-0.33 36 -0.66 36 -1 36 C-0.67 31.38 -0.34 26.76 0 22 C-0.66 22 -1.32 22 -2 22 C-3.03863773 15.76817361 -2.83288874 10.25307239 -2 4 C-1.34 4 -0.68 4 0 4 C0 2.68 0 1.36 0 0 Z " fill="#D2C0B9" transform="translate(258,232)"/>
<path d="M0 0 C6.04833555 6.04833555 5.87283322 16.7629963 6.75732422 24.86425781 C7.16094548 28.41644974 7.64396002 31.95760286 8.125 35.5 C8.29257813 36.7478125 8.46015625 37.995625 8.6328125 39.28125 C8.75398437 40.1784375 8.87515625 41.075625 9 42 C9.66 41.01 10.32 40.02 11 39 C11.65537907 41.14293716 12.29879288 43.28953478 12.9375 45.4375 C13.29714844 46.63246094 13.65679687 47.82742187 14.02734375 49.05859375 C16.42344454 58.09249532 16.12422397 67.28016379 16.0625 76.5625 C16.05798828 77.85736328 16.05347656 79.15222656 16.04882812 80.48632812 C16.03712601 83.657601 16.02073113 86.82877546 16 90 C15.01 90.495 15.01 90.495 14 91 C10.0044376 75.72618345 8.11031667 60.00890786 6.73413086 44.30419922 C6.29762539 39.6546687 5.34692014 35.49142167 4 31 C3.4388073 28.31218235 2.91161172 25.63996808 2.4375 22.9375 C2.30819092 22.20668213 2.17888184 21.47586426 2.0456543 20.72290039 C0.87981992 13.83604896 0.32075319 6.97914695 0 0 Z " fill="#98837A" transform="translate(233,109)"/>
<path d="M0 0 C2.09970981 3.9171057 2.99334562 7.68576696 4 12 C5.32 11.34 6.64 10.68 8 10 C9.81294606 11.81294606 9.21637857 14.49154109 9.25 16.9375 C9.01672846 37.88952586 2.60722258 57.04187545 -8 75 C-8.33 74.34 -8.66 73.68 -9 73 C-8.06504898 70.28864203 -7.07342079 67.65554969 -6 65 C-3.03909448 57.72514534 -3.03909448 57.72514534 -2 50 C-2.99 50.495 -2.99 50.495 -4 51 C-3.80664062 50.46632812 -3.61328125 49.93265625 -3.4140625 49.3828125 C0.29971753 38.75625379 2.89463134 27.70706299 -0.0625 16.5625 C-1.5054098 11.01284692 -0.70417908 5.62391671 0 0 Z " fill="#9B867E" transform="translate(218,91)"/>
<path d="M0 0 C0.12375 0.639375 0.2475 1.27875 0.375 1.9375 C0.58125 2.618125 0.7875 3.29875 1 4 C1.66 4.33 2.32 4.66 3 5 C0.95406783 14.08698596 -1.21777503 23.0386561 -4.0546875 31.91796875 C-5.33321018 36.08637533 -6.3696695 40.30041031 -7.38671875 44.5390625 C-8 47 -8 47 -9 50 C-9.66 50 -10.32 50 -11 50 C-11.66 53.63 -12.32 57.26 -13 61 C-15.97 61.495 -15.97 61.495 -19 62 C-19.19023584 58.28056133 -18.71530172 55.81926337 -17.1875 52.4375 C-15.60146229 48.69422918 -14.46629327 45.08818544 -13.5625 41.125 C-12.06421558 34.75524438 -9.61749623 28.97918256 -7 23 C-4.47240582 17.06127208 -3.0097624 11.06674832 -1.6484375 4.7578125 C-1 2 -1 2 0 0 Z " fill="#A59088" transform="translate(220,180)"/>
<path d="M0 0 C10.38135042 2.05049246 19.85648207 2.16522774 30.3125 0.77734375 C31.45428711 0.63425781 31.45428711 0.63425781 32.61914062 0.48828125 C34.45519549 0.25733095 36.29022516 0.01825205 38.125 -0.22265625 C38.62 1.26234375 38.62 1.26234375 39.125 2.77734375 C27.37320898 9.55722318 8.27520435 6.35231067 -4.33203125 3.43359375 C-11.97857249 2.01725535 -18.72930137 2.71490148 -25.875 5.77734375 C-25.545 4.45734375 -25.215 3.13734375 -24.875 1.77734375 C-27.845 1.77734375 -30.815 1.77734375 -33.875 1.77734375 C-33.875 0.78734375 -33.875 -0.20265625 -33.875 -1.22265625 C-22.01687766 -4.67229184 -11.87272625 -2.45139995 0 0 Z " fill="#AA968E" transform="translate(116.875,204.22265625)"/>
<path d="M0 0 C1.81938351 1.54817862 2.87954323 2.52631857 3.4765625 4.87402344 C3.55003906 5.98052246 3.55003906 5.98052246 3.625 7.109375 C3.68945312 7.99689453 3.75390625 8.88441406 3.8203125 9.79882812 C3.87960938 10.85521484 3.93890625 11.91160156 4 13 C4.07992187 14.28841797 4.15984375 15.57683594 4.2421875 16.90429688 C4.55930896 22.12504459 4.84363809 27.3475321 5.125 32.5703125 C5.24718411 34.82308212 5.37339791 37.07559997 5.5 39.328125 C5.53544922 40.00949524 5.57089844 40.69086548 5.60742188 41.3928833 C5.83055633 45.32844164 6.34481137 49.11730628 7 53 C8.03420479 64.98122875 8.27566533 77.00297321 8.55224609 89.02001953 C8.7444043 97.19820217 9.03803229 105.32518494 9.79052734 113.47558594 C10.06234154 116.75129549 10.09822302 119.96348182 10.0625 123.25 C10.05347656 124.34828125 10.04445312 125.4465625 10.03515625 126.578125 C10.02355469 127.37734375 10.01195312 128.1765625 10 129 C8.68 129 7.36 129 6 129 C5.505 122.565 5.505 122.565 5 116 C5.66 116.66 6.32 117.32 7 118 C6.93941406 117.03400879 6.87882813 116.06801758 6.81640625 115.07275391 C4.81419093 82.9056238 4.81419093 82.9056238 5 73.3125 C5.16913712 61.87883041 4.79701399 49.71802668 2.48413086 38.49731445 C1.98886901 35.94258248 1.81087445 33.5365856 1.71875 30.9375 C1.68193115 29.98109619 1.6451123 29.02469238 1.60717773 28.03930664 C1.57180908 27.03633545 1.53644043 26.03336426 1.5 25 C1.1747018 16.64542208 0.75133242 8.32859983 0 0 Z " fill="#AD9991" transform="translate(236,231)"/>
<path d="M0 0 C1.84271484 -0.02126953 1.84271484 -0.02126953 3.72265625 -0.04296875 C6.9375 0.1875 6.9375 0.1875 9.9375 2.1875 C9.9375 2.8475 9.9375 3.5075 9.9375 4.1875 C9.009375 4.0225 8.08125 3.8575 7.125 3.6875 C3.98128647 3.11001612 3.98128647 3.11001612 0.9375 3.1875 C-0.42375 3.125625 -0.42375 3.125625 -1.8125 3.0625 C-9.20589713 3.34686143 -13.38510778 5.71266769 -18.3125 10.875 C-18.828125 11.37966797 -19.34375 11.88433594 -19.875 12.40429688 C-24.96065681 17.5882589 -26.87139229 23.32202918 -29.0625 30.1875 C-30.89107143 35.90178571 -30.89107143 35.90178571 -32.1875 38.0625 C-33.56888714 41.41729735 -33.18267762 44.58217147 -33.0625 48.1875 C-33.7225 48.1875 -34.3825 48.1875 -35.0625 48.1875 C-35.02125 49.13625 -34.98 50.085 -34.9375 51.0625 C-35.0625 54.1875 -35.0625 54.1875 -37.0625 56.1875 C-37.68566657 44.74893136 -36.88326065 35.81013088 -32.0625 25.1875 C-31.65306152 24.26396729 -31.65306152 24.26396729 -31.23535156 23.32177734 C-26.56653737 12.89582858 -22.02879184 5.51629941 -11.0625 1.1875 C-7.39920479 -0.02035439 -3.83798942 0.0201787 0 0 Z " fill="#E79D8E" transform="translate(183.0625,63.8125)"/>
<path d="M0 0 C0.66 0.33 1.32 0.66 2 1 C0.69791667 2.49739583 -0.60416667 3.99479167 -1.90625 5.4921875 C-3.19572458 6.95936421 -3.19572458 6.95936421 -3 9 C-2.34 9.33 -1.68 9.66 -1 10 C-13.43127246 16.61350768 -23.52360142 20.42725056 -38 19 C-41.17254918 18.00505854 -43.19732885 16.86844743 -46 15 C-46.33 14.34 -46.66 13.68 -47 13 C-45.54176788 12.9729957 -44.08339325 12.95360213 -42.625 12.9375 C-41.81289062 12.92589844 -41.00078125 12.91429687 -40.1640625 12.90234375 C-38 13 -38 13 -36 14 C-27.82909907 14.96128246 -20.54209225 11.78711136 -13 9 C-12.113125 8.690625 -11.22625 8.38125 -10.3125 8.0625 C-7.65745561 6.84261474 -5.8386379 5.34383808 -3.6875 3.375 C-2.99011719 2.74335938 -2.29273438 2.11171875 -1.57421875 1.4609375 C-1.05472656 0.97882813 -0.53523438 0.49671875 0 0 Z " fill="#8A756D" transform="translate(160,175)"/>
<path d="M0 0 C2.50360992 4.62204909 5 9.69950655 5 15 C5.66 15 6.32 15 7 15 C7.14099121 15.64026123 7.28198242 16.28052246 7.42724609 16.94018555 C8.07212807 19.85694289 8.72349863 22.77221438 9.375 25.6875 C9.59671875 26.69490234 9.8184375 27.70230469 10.046875 28.74023438 C10.26601563 29.71669922 10.48515625 30.69316406 10.7109375 31.69921875 C10.90993652 32.59471436 11.10893555 33.49020996 11.31396484 34.4128418 C11.95319668 37.04256505 11.95319668 37.04256505 13.06396484 39.62255859 C14.3151374 42.80041941 14.26478587 45.53305343 14.25 48.9375 C14.25515625 50.12214844 14.2603125 51.30679688 14.265625 52.52734375 C13.9957366 56.05573765 13.41451502 58.76076061 12 62 C11.01 62.66 10.02 63.32 9 64 C8 61 8 61 8.921875 59.0625 C9.27765625 58.381875 9.6334375 57.70125 10 57 C10.96141408 49.98733262 9.24718394 42.87379241 8 36 C7.64290864 33.66909593 7.31861723 31.33652639 7 29 C6.34 29 5.68 29 5 29 C2.73165147 20.99220216 0.68228843 13.32391888 0 5 C-0.19207031 4.28199219 -0.38414062 3.56398437 -0.58203125 2.82421875 C-0.71996094 2.22222656 -0.85789062 1.62023437 -1 1 C-0.67 0.67 -0.34 0.34 0 0 Z " fill="#B4A199" transform="translate(303,233)"/>
<path d="M0 0 C5.60318858 5.60318858 7.29639692 19.24582826 7.5 26.9375 C7.01250443 35.92134702 3.94996374 44.57153217 1 53 C0.67 53 0.34 53 0 53 C0.04543945 51.88310791 0.04543945 51.88310791 0.09179688 50.74365234 C1.25531602 25.35276426 1.25531602 25.35276426 0 0 Z " fill="#DC6D5A" transform="translate(213,91)"/>
<path d="M0 0 C0.33 0 0.66 0 1 0 C0.86971979 7.55625226 -1.76246976 13.00789583 -5.21484375 19.54296875 C-7.16573248 23.32094803 -8.7620652 27.14037993 -10.2734375 31.109375 C-11 33 -11 33 -12 35 C-13.32 35 -14.64 35 -16 35 C-15.3044671 32.90692118 -14.60825484 30.81406636 -13.90917969 28.72216797 C-13.29771173 26.89137643 -12.68903403 25.05965083 -12.08300781 23.22705078 C-11.11704597 20.33164717 -10.12309883 17.44696709 -9.125 14.5625 C-8.79886719 13.57056641 -8.47273438 12.57863281 -8.13671875 11.55664062 C-7.63978516 10.13834961 -7.63978516 10.13834961 -7.1328125 8.69140625 C-6.84293457 7.83748291 -6.55305664 6.98355957 -6.25439453 6.10375977 C-4.61518667 3.35462506 -3.0035008 2.89696047 0 2 C0 1.34 0 0.68 0 0 Z " fill="#9A857D" transform="translate(119,132)"/>
<path d="M0 0 C-0.58007812 0.31710938 -1.16015625 0.63421875 -1.7578125 0.9609375 C-14.14367596 8.35975363 -16.99418157 20.95978255 -21 34 C-22.32 34 -23.64 34 -25 34 C-17.12706692 5.72444459 -17.12706692 5.72444459 -11.5 2.375 C-10.345 1.92125 -9.19 1.4675 -8 1 C-7.0925 0.566875 -6.185 0.13375 -5.25 -0.3125 C-3 -1 -3 -1 0 0 Z " fill="#9C8981" transform="translate(77,208)"/>
<path d="M0 0 C0.72960937 -0.01611328 1.45921875 -0.03222656 2.2109375 -0.04882812 C7.40278355 -0.0534637 10.98138524 0.99069262 15.625 3.3125 C14.635 3.6425 13.645 3.9725 12.625 4.3125 C11.965 3.9825 11.305 3.6525 10.625 3.3125 C-0.37794619 2.56164278 -8.45865006 3.42259323 -17.375 10.3125 C-22.72640106 16.13608351 -25.7317658 22.85369035 -28.4453125 30.17578125 C-29.375 32.3125 -29.375 32.3125 -31.375 34.3125 C-30.78664143 29.89650533 -29.67284101 26.16140635 -27.9375 22.0625 C-27.28974609 20.50789063 -27.28974609 20.50789063 -26.62890625 18.921875 C-25.375 16.3125 -25.375 16.3125 -23.375 14.3125 C-23.16875 13.590625 -22.9625 12.86875 -22.75 12.125 C-20.34915198 7.21417451 -15.93382516 3.67006169 -11.13671875 1.125 C-7.42097326 0.03182452 -3.83811672 -0.01677499 0 0 Z " fill="#E48A7C" transform="translate(179.375,61.6875)"/>
<path d="M0 0 C2.6422825 1.32114125 2.6763746 2.35540203 3.61328125 5.11328125 C4.18825259 6.84353144 4.7542708 8.57677596 5.3125 10.3125 C5.61478516 11.18068359 5.91707031 12.04886719 6.22851562 12.94335938 C6.49986328 13.78318359 6.77121094 14.62300781 7.05078125 15.48828125 C7.30512939 16.25696533 7.55947754 17.02564941 7.8215332 17.81762695 C8 20 8 20 6.71557617 22.17651367 C3.90109865 25.16802251 0.86619763 26.71126746 -3 28 C-4.20882096 30.00016466 -4.20882096 30.00016466 -5 32 C-5.66 31.67 -6.32 31.34 -7 31 C-6.21625 30.0925 -5.4325 29.185 -4.625 28.25 C1.05749341 20.24943563 0.29992037 9.39750478 0 0 Z " fill="#89756C" transform="translate(318,276)"/>
<path d="M0 0 C0.33 0 0.66 0 1 0 C1.18175781 0.98097656 1.36351562 1.96195312 1.55078125 2.97265625 C1.80460814 4.33595228 2.05852135 5.69923224 2.3125 7.0625 C2.44785156 7.79275391 2.58320313 8.52300781 2.72265625 9.27539062 C3.57985818 13.86697691 4.52018625 18.43272003 5.5 23 C8.49228402 37.8826758 10.17806737 53.0792632 10.69140625 68.24609375 C10.79324219 69.15488281 10.89507812 70.06367188 11 71 C11.66 71.33 12.32 71.66 13 72 C11.515 72.99 11.515 72.99 10 74 C7.58599217 65.54338139 6.67295448 57.63390877 6.34399414 48.8894043 C6.13202666 43.63144796 5.56290881 38.65312168 4.46875 33.49609375 C3.77907144 29.82355541 3.56328403 26.13674637 3.34375 22.41015625 C3.1474245 20.01614661 3.1474245 20.01614661 2.0078125 18.19921875 C0.47240971 14.848708 0.52880117 11.37714433 0.375 7.75 C0.33632813 7.00492187 0.29765625 6.25984375 0.2578125 5.4921875 C0.16394892 3.6618476 0.08090282 1.83095857 0 0 Z " fill="#AB968E" transform="translate(269,265)"/>
<path d="M0 0 C4.19224343 4.19224343 3.06218519 12.37155452 3.09765625 18.00390625 C3.09107779 20.52345616 3.07925373 23.0429972 3.0625 25.5625 C3.05798828 26.85736328 3.05347656 28.15222656 3.04882812 29.48632812 C3.03712601 32.657601 3.02073113 35.82877546 3 39 C2.01 39.495 2.01 39.495 1 40 C-2.11751671 28.79772328 -3.08735291 17.55309634 -4 6 C-2 9 -2 9 0 17 C0 11.39 0 5.78 0 0 Z " fill="#A59188" transform="translate(246,160)"/>
<path d="M0 0 C2.36888235 2.15352941 3.09734715 3.25032123 4.3125 6.375 C6.33055042 10.71007127 8.29012021 12.11453794 12 15 C12 15.66 12 16.32 12 17 C14.97574276 17.70266613 14.97574276 17.70266613 18 18 C18.99 18 19.98 18 21 18 C21 18.66 21 19.32 21 20 C21.60328125 20.18175781 22.2065625 20.36351562 22.828125 20.55078125 C30.76625659 23.04745167 30.76625659 23.04745167 34 26 C27.85845775 25.41509121 21.99320151 24.45933748 16 23 C16 22.01 16 21.02 16 20 C15.2575 19.896875 14.515 19.79375 13.75 19.6875 C10.7476615 18.93691538 9.40547748 17.89522468 7 16 C5.4221875 15.2265625 5.4221875 15.2265625 3.8125 14.4375 C1 13 1 13 0 11 C-0.07033769 9.12620395 -0.0843022 7.24998898 -0.0625 5.375 C-0.05347656 4.37210938 -0.04445312 3.36921875 -0.03515625 2.3359375 C-0.02355469 1.56507813 -0.01195312 0.79421875 0 0 Z " fill="#9C847B" transform="translate(143,143)"/>
<path d="M0 0 C0.66 0.33 1.32 0.66 2 1 C-3.35934595 8.81571285 -9.77297834 15.21684787 -18 20 C-18.99 20 -19.98 20 -21 20 C-21 20.66 -21 21.32 -21 22 C-22.65 22 -24.3 22 -26 22 C-26 21.01 -26 20.02 -26 19 C-24.17884708 17.8660746 -22.3509695 16.74194039 -20.49609375 15.6640625 C-16.43895025 12.95930017 -13.03780039 9.56316123 -9.515625 6.20703125 C-7.32892973 4.28857965 -5.62016204 3.16145838 -3 2 C-2.01 1.34 -1.02 0.68 0 0 Z " fill="#A08B83" transform="translate(198,178)"/>
<path d="M0 0 C0.33 0 0.66 0 1 0 C3.29047437 10.87419385 5.26298086 21.67218406 6.25 32.75 C6.32976074 33.64090332 6.40952148 34.53180664 6.49169922 35.44970703 C6.94215156 40.98309276 7.06742216 46.44890865 7 52 C6.67 52 6.34 52 6 52 C5.88406494 51.02651611 5.76812988 50.05303223 5.64868164 49.05004883 C5.21642962 45.42497148 4.78157417 41.80021031 4.34594727 38.17553711 C4.15806634 36.60921544 3.97088363 35.04280984 3.78442383 33.47631836 C3.51568904 31.21966275 3.2444126 28.96332473 2.97265625 26.70703125 C2.89032242 26.01100296 2.80798859 25.31497467 2.72315979 24.59785461 C2.29053337 21.02735931 1.76489257 17.51493436 1 14 C0.67 16.64 0.34 19.28 0 22 C-0.66 22 -1.32 22 -2 22 C-3.03863773 15.76817361 -2.83288874 10.25307239 -2 4 C-1.34 4 -0.68 4 0 4 C0 2.68 0 1.36 0 0 Z " fill="#D5C3BB" transform="translate(258,232)"/>
<path d="M0 0 C0.33 0 0.66 0 1 0 C1.72363532 5.43881225 2.43514419 10.87903583 3.13623047 16.32080078 C3.37554614 18.16561941 3.61797333 20.01003753 3.86376953 21.85400391 C5.29907337 32.63928703 6.41145646 43.0986896 6 54 C5.67 54 5.34 54 5 54 C-2.96305352 5.92610704 -2.96305352 5.92610704 0 0 Z " fill="#E4D3CB" transform="translate(259,244)"/>
<path d="M0 0 C0.33 0 0.66 0 1 0 C1 4.62 1 9.24 1 14 C0.67 14 0.34 14 0 14 C0 9.38 0 4.76 0 0 Z M-1 14 C-0.67 14 -0.34 14 0 14 C0.02937438 17.33331439 0.04692334 20.66659483 0.0625 24 C0.07087891 24.93457031 0.07925781 25.86914062 0.08789062 26.83203125 C0.14263745 42.48962346 0.14263745 42.48962346 -4.0625 47.5 C-4.61035156 48.1703125 -5.15820312 48.840625 -5.72265625 49.53125 C-6.35494141 50.25828125 -6.35494141 50.25828125 -7 51 C-7.81799864 48.67104845 -8.16383333 47.44262153 -7.29296875 45.08984375 C-6.92816406 44.37957031 -6.56335938 43.66929687 -6.1875 42.9375 C-3.0283801 35.67152422 -2.81664483 27.85125016 -2.23364258 20.03955078 C-1.9952142 17.95822299 -1.55218891 16.01873686 -1 14 Z " fill="#DE806F" transform="translate(214,103)"/>
<path d="M0 0 C0.66 0.33 1.32 0.66 2 1 C0.69791667 2.49739583 -0.60416667 3.99479167 -1.90625 5.4921875 C-3.19572458 6.95936421 -3.19572458 6.95936421 -3 9 C-2.34 9.33 -1.68 9.66 -1 10 C-2.98 10.66 -4.96 11.32 -7 12 C-7 11.34 -7 10.68 -7 10 C-8.32 10 -9.64 10 -11 10 C-11 10.66 -11 11.32 -11 12 C-32.18923465 18.40538267 -32.18923465 18.40538267 -39 15 C-41.3329866 14.95977609 -43.66706666 14.95679753 -46 15 C-46.33 14.34 -46.66 13.68 -47 13 C-45.54176788 12.9729957 -44.08339325 12.95360213 -42.625 12.9375 C-41.81289062 12.92589844 -41.00078125 12.91429687 -40.1640625 12.90234375 C-38 13 -38 13 -36 14 C-27.82909907 14.96128246 -20.54209225 11.78711136 -13 9 C-12.113125 8.690625 -11.22625 8.38125 -10.3125 8.0625 C-7.65745561 6.84261474 -5.8386379 5.34383808 -3.6875 3.375 C-2.99011719 2.74335938 -2.29273438 2.11171875 -1.57421875 1.4609375 C-1.05472656 0.97882813 -0.53523438 0.49671875 0 0 Z " fill="#A38F86" transform="translate(160,175)"/>
<path d="M0 0 C2.50360992 4.62204909 5 9.69950655 5 15 C5.66 15 6.32 15 7 15 C7.14099121 15.64026123 7.28198242 16.28052246 7.42724609 16.94018555 C8.07212807 19.85694289 8.72349863 22.77221438 9.375 25.6875 C9.59671875 26.69490234 9.8184375 27.70230469 10.046875 28.74023438 C10.26601563 29.71669922 10.48515625 30.69316406 10.7109375 31.69921875 C10.90993652 32.59471436 11.10893555 33.49020996 11.31396484 34.4128418 C11.95142324 37.04140456 11.95142324 37.04140456 13.06835938 39.609375 C14.35254466 42.90464291 14.19077878 45.79333535 14.125 49.3125 C14.10695313 50.56675781 14.08890625 51.82101562 14.0703125 53.11328125 C14.04710937 54.06589844 14.02390625 55.01851563 14 56 C13.67 56 13.34 56 13 56 C11.88383356 51.21642954 10.90610472 46.48413665 10.1875 41.625 C9.1482444 35.09374325 7.43647506 28.7775094 5.67651367 22.41064453 C5.46099854 21.62415527 5.2454834 20.83766602 5.0234375 20.02734375 C4.72832275 18.97148071 4.72832275 18.97148071 4.42724609 17.89428711 C4 16 4 16 4 13 C3.34 13 2.68 13 2 13 C1.46605821 11.5882217 0.94834896 10.17029756 0.4375 8.75 C0.14746094 7.96109375 -0.14257812 7.1721875 -0.44140625 6.359375 C-1.04522837 3.80896548 -0.8473932 2.44677771 0 0 Z " fill="#A59188" transform="translate(303,233)"/>
<path d="M0 0 C9.24050088 9.24050088 7.41601795 31.58269749 8 44 C7.67 44 7.34 44 7 44 C3.42796988 29.43321052 0.68966976 15.00626265 0 0 Z " fill="#A28D85" transform="translate(233,109)"/>
<path d="M0 0 C0.33 0 0.66 0 1 0 C0.67 11.88 0.34 23.76 0 36 C-4.05365 31.94635 -4.1465111 25.32887494 -4.375 19.8125 C-4.27677562 12.89750399 -2.13120942 6.51731453 0 0 Z " fill="#DA6857" transform="translate(144,98)"/>
<path d="M0 0 C0.12375 0.639375 0.2475 1.27875 0.375 1.9375 C0.58125 2.618125 0.7875 3.29875 1 4 C1.66 4.33 2.32 4.66 3 5 C2.38379145 7.79387762 1.75750305 10.58480926 1.125 13.375 C0.95097656 14.1690625 0.77695313 14.963125 0.59765625 15.78125 C0.42363281 16.54179687 0.24960938 17.30234375 0.0703125 18.0859375 C-0.08679199 18.7876709 -0.24389648 19.4894043 -0.40576172 20.21240234 C-1 22 -1 22 -3 24 C-3.33 23.67 -3.66 23.34 -4 23 C-5.32 25.64 -6.64 28.28 -8 31 C-9.14773573 26.40905707 -8.6912152 25.67363678 -6.75 21.5625 C-4.28523241 15.99623318 -2.80550614 10.56855883 -1.578125 4.6171875 C-1 2 -1 2 0 0 Z " fill="#AA968D" transform="translate(220,180)"/>
<path d="M0 0 C2.86632944 2.86632944 3.2315668 6.29316426 4.125 10.125 C4.39763672 11.25615234 4.39763672 11.25615234 4.67578125 12.41015625 C5.12354709 14.27191946 5.56260722 16.13577253 6 18 C3.36 18 0.72 18 -2 18 C-2 12.39 -2 6.78 -2 1 C-1.34 0.67 -0.68 0.34 0 0 Z " fill="#111010" transform="translate(85,342)"/>
<path d="M0 0 C4.51824531 6.77736797 5.22508848 16.00935895 5 24 C3.84545629 29.52531631 2.31533 33.71456387 -1.75 37.6875 C-2.4925 38.120625 -3.235 38.55375 -4 39 C-3.80664062 38.46632812 -3.61328125 37.93265625 -3.4140625 37.3828125 C1.01289383 24.71558102 1.74059652 13.27204844 0 0 Z " fill="#907067" transform="translate(218,103)"/>
<path d="M0 0 C1.90234375 1.01171875 1.90234375 1.01171875 4 3 C4.70170216 5.66996217 5.19588095 8.09853483 5.5625 10.8125 C6.32770105 16.16890732 7.47737115 20.14062021 10 25 C11.54091272 31.25429282 12.29241848 37.56679335 12 44 C11.01 44 10.02 44 9 44 C8.89042969 42.91203125 8.78085938 41.8240625 8.66796875 40.703125 C7.7352838 31.89890066 6.33479743 23.55671708 4 15 C3.63575577 13.37722917 3.28080693 11.75232891 2.9375 10.125 C2.18618261 6.65883824 1.19973707 3.34212469 0 0 Z " fill="#A08C84" transform="translate(217,47)"/>
<path d="M0 0 C2.4375 0.625 2.4375 0.625 5 2 C5.625 5 5.625 5 6 8 C6.99 8.66 7.98 9.32 9 10 C8.88590407 11.45922693 8.75834456 12.91740598 8.625 14.375 C8.55539063 15.18710937 8.48578125 15.99921875 8.4140625 16.8359375 C8 19 8 19 6 21 C5.18501438 19.3970947 4.37310073 17.79262722 3.5625 16.1875 C3.11003906 15.29417969 2.65757813 14.40085937 2.19140625 13.48046875 C-0.10685097 8.69557258 -0.08538127 5.2082574 0 0 Z " fill="#99857C" transform="translate(123,273)"/>
<path d="M0 0 C0.66 0 1.32 0 2 0 C1.99476318 0.86165771 1.98952637 1.72331543 1.98413086 2.61108398 C1.96695396 5.8483861 1.95448469 9.08566476 1.94506836 12.32299805 C1.94008043 13.71656057 1.93328769 15.11011798 1.92456055 16.50366211 C1.87835385 24.07884283 2.02172798 31.47953388 3 39 C3.10330915 42.01249471 3.04787308 44.98399586 3 48 C-1.76650976 38.96127592 -1.22479666 29.51472044 -1.0625 19.5625 C-1.02611081 16.85546075 -0.998032 14.1485985 -0.97265625 11.44140625 C-0.95468994 10.25232666 -0.93672363 9.06324707 -0.91821289 7.83813477 C-0.79910519 5.05073643 -0.79910519 5.05073643 -2 3 C-1.34 2.01 -0.68 1.02 0 0 Z " fill="#A49087" transform="translate(125,94)"/>
<path d="M0 0 C0.33 0.99 0.66 1.98 1 3 C-3.95 3 -8.9 3 -14 3 C-14.33 3.66 -14.66 4.32 -15 5 C-17.97 4.67 -20.94 4.34 -24 4 C-24 3.01 -24 2.02 -24 1 C-15.73756304 -1.40361802 -8.44680521 -1.43775408 0 0 Z " fill="#9B877F" transform="translate(107,202)"/>
<path d="M0 0 C0.33 0 0.66 0 1 0 C1.51465181 6.94779945 -0.1861854 11.70486003 -3 18 C-3.28875 18.845625 -3.5775 19.69125 -3.875 20.5625 C-5.19819538 23.42942333 -6.69861481 24.81660251 -9.125 26.8125 C-9.84945312 27.41707031 -10.57390625 28.02164063 -11.3203125 28.64453125 C-11.87460938 29.09183594 -12.42890625 29.53914063 -13 30 C-13 27 -13 27 -11.25 24.9375 C-8.75629318 21.68182721 -7.52340166 18.65494144 -6.08203125 14.84765625 C-4.87096381 11.66040656 -3.56793258 8.51947575 -2.25 5.375 C-1.82203125 4.35148438 -1.3940625 3.32796875 -0.953125 2.2734375 C-0.63859375 1.52320313 -0.3240625 0.77296875 0 0 Z " fill="#E7A296" transform="translate(210,132)"/>
<path d="M0 0 C0 0.66 0 1.32 0 2 C-5.64972254 5.25945531 -11.81674021 5.18162833 -18.1875 5.1875 C-19.25387695 5.20586914 -19.25387695 5.20586914 -20.34179688 5.22460938 C-24.11373295 5.23525454 -25.78364543 5.14423638 -29 3 C-25.81256234 2.52041808 -22.62503862 2.04141041 -19.4375 1.5625 C-18.54224609 1.42779297 -17.64699219 1.29308594 -16.72460938 1.15429688 C-14.96498888 0.89003153 -13.20506428 0.62778224 -11.44482422 0.36767578 C-9.91351988 0.13738376 -8.3835715 -0.10234033 -6.85595703 -0.35595703 C-2.21210562 -1.10605281 -2.21210562 -1.10605281 0 0 Z " fill="#A48F87" transform="translate(156,205)"/>
<path d="M0 0 C0.33 0.99 0.66 1.98 1 3 C1.66 3 2.32 3 3 3 C7.37096769 14.8185874 9.30522154 27.3841763 9 40 C7.45937839 37.17552705 6.58954833 34.65829461 6 31.5 C5.83371094 30.62859375 5.66742188 29.7571875 5.49609375 28.859375 C5.15160788 26.87383441 4.8331128 24.8836789 4.53515625 22.890625 C3.62638185 16.62205833 3.62638185 16.62205833 1.375 10.75 C-0.51526186 6.96947628 -0.21683575 4.19215787 0 0 Z " fill="#927D74" transform="translate(223,58)"/>
<path d="M0 0 C0.66 0 1.32 0 2 0 C3.2890625 1.4609375 3.2890625 1.4609375 4.625 3.375 C5.29402344 4.31472656 5.29402344 4.31472656 5.9765625 5.2734375 C7 7 7 7 7 9 C7.99 9.33 8.98 9.66 10 10 C12.29633824 13.44450737 12.54016485 15.93812283 13 20 C13.66 19.34 14.32 18.68 15 18 C17.01167675 23.78357065 17.22084624 28.90218999 17 35 C16.67 35 16.34 35 16 35 C15.81824219 34.41992188 15.63648438 33.83984375 15.44921875 33.2421875 C14.27213207 29.58416428 13.11624266 26.21956946 11.3125 22.8125 C9.83359705 19.64342224 9.75316876 17.45563742 10 14 C9.34 14 8.68 14 8 14 C4 7.25 4 7.25 4 5 C3.34 5 2.68 5 2 5 C1.34 3.35 0.68 1.7 0 0 Z " fill="#9F8B82" transform="translate(201,64)"/>
<path d="M0 0 C8.51316775 6.9366552 10.57822202 18.85288554 13 29 C12.34 29 11.68 29 11 29 C11.33 30.32 11.66 31.64 12 33 C11.34 33 10.68 33 10 33 C9.34964629 30.48025747 8.70462507 27.95934065 8.0625 25.4375 C7.88009766 24.73302734 7.69769531 24.02855469 7.50976562 23.30273438 C6.3884486 18.87862902 5.56543671 14.52944562 5 10 C4.34 10 3.68 10 3 10 C3 9.01 3 8.02 3 7 C2.34 7 1.68 7 1 7 C0.67 4.69 0.34 2.38 0 0 Z " fill="#7B665D" transform="translate(221,51)"/>
<path d="M0 0 C3.31920094 4.97880141 3.32329586 9.33937938 3.625 15.125 C3.6765625 15.94226563 3.728125 16.75953125 3.78125 17.6015625 C4.08231615 23.19785092 3.9104378 28.46058928 3 34 C2.01 34.495 2.01 34.495 1 35 C0.34 35.99 -0.32 36.98 -1 38 C-1.66 33.38 -2.32 28.76 -3 24 C-1.04783565 25.95216435 -0.15173355 27.53199953 1 30 C1.12847075 19.93645782 0.79692838 10.03275911 0 0 Z " fill="#B09C94" transform="translate(222,68)"/>
<path d="M0 0 C0.33 0 0.66 0 1 0 C2.30618118 10.39113779 3.33358056 20.51074452 3 31 C1.68 31 0.36 31 -1 31 C-1.33 26.71 -1.66 22.42 -2 18 C-1.34 18.66 -0.68 19.32 0 20 C0 13.4 0 6.8 0 0 Z " fill="#A7938B" transform="translate(243,329)"/>
<path d="M0 0 C2 1 2 1 3.2890625 4.5078125 C6.59622211 15.53531609 10.13914143 27.99934786 5 39 C3.84633883 35.39702742 3.99997732 32.13401519 4.125 28.375 C4.18481757 21.99445942 3.15024119 16.94937201 1 11 C-0.08257825 7.28219837 -0.0744591 3.8718732 0 0 Z " fill="#968179" transform="translate(312,254)"/>
<path d="M0 0 C1.8676744 1.58012325 2.88779617 2.56699107 3.50952148 4.96630859 C4.07958525 12.52185218 4.11320664 20.0502086 4.0625 27.625 C4.05798828 28.91535156 4.05347656 30.20570313 4.04882812 31.53515625 C4.03714295 34.69015375 4.02076044 37.84505137 4 41 C3.67 41 3.34 41 3 41 C2.25202741 37.61443987 1.84150269 34.40069305 1.71875 30.9375 C1.68193115 29.98109619 1.6451123 29.02469238 1.60717773 28.03930664 C1.57180908 27.03633545 1.53644043 26.03336426 1.5 25 C1.1747018 16.64542208 0.75133242 8.32859983 0 0 Z " fill="#A18D85" transform="translate(236,231)"/>
<path d="M0 0 C0.99 0.33 1.98 0.66 3 1 C2.25556641 1.73089844 2.25556641 1.73089844 1.49609375 2.4765625 C-4.71989705 8.96383942 -8.32165781 15.919142 -12 24 C-12.66 24 -13.32 24 -14 24 C-14.19335938 24.63808594 -14.38671875 25.27617188 -14.5859375 25.93359375 C-14.84632813 26.75988281 -15.10671875 27.58617188 -15.375 28.4375 C-15.75785156 29.67306641 -15.75785156 29.67306641 -16.1484375 30.93359375 C-17 33 -17 33 -19 34 C-16.03232616 22.23343356 -11.32411801 12.72747894 -2.85546875 3.9609375 C-0.94507634 2.13173572 -0.94507634 2.13173572 0 0 Z " fill="#A18B82" transform="translate(159,67)"/>
<path d="M0 0 C0.66 0 1.32 0 2 0 C2.05534912 0.82612793 2.11069824 1.65225586 2.16772461 2.50341797 C2.37704348 5.61597434 2.58783056 8.7284271 2.79956055 11.84082031 C2.93453704 13.83130551 3.06787289 15.82190175 3.20117188 17.8125 C3.68370544 24.88965894 4.22744113 31.94819074 5 39 C4.34 39 3.68 39 3 39 C0.80153461 25.95861793 -0.19479691 13.22454556 0 0 Z " fill="#D0BDB6" transform="translate(237,321)"/>
<path d="M0 0 C0.66 0 1.32 0 2 0 C4.38222795 9.65653116 4.19538118 19.13325025 4 29 C-0.58372792 19.83254415 -0.17985833 10.15200351 0 0 Z " fill="#947F76" transform="translate(261,226)"/>
<path d="M0 0 C-1 3 -1 3 -3.4375 4.25 C-5.2009375 5.11625 -5.2009375 5.11625 -7 6 C-9.61544196 7.74227423 -12.17332344 9.55237388 -14.73046875 11.37890625 C-18.4993822 14.07098729 -20.35010869 15.25134548 -25 15 C-23.37660195 13.29115995 -21.70680947 11.62553283 -20 10 C-19.34 10 -18.68 10 -18 10 C-17.67 9.01 -17.34 8.02 -17 7 C-14.3828125 5.68359375 -14.3828125 5.68359375 -11.125 4.4375 C-7.68450602 3.10689932 -3.51259484 0 0 0 Z " fill="#A59088" transform="translate(199,161)"/>
<path d="M0 0 C2.475 0.99 2.475 0.99 5 2 C2.369307 4.630693 -0.7114832 6.03993988 -4 7.6875 C-4.64195313 8.02072266 -5.28390625 8.35394531 -5.9453125 8.69726562 C-7.59926264 9.52943092 -9.29766443 10.27191775 -11 11 C-11.66 10.67 -12.32 10.34 -13 10 C-11.21340253 6.80693219 -9.39864623 3.77225027 -7 1 C-3.6875 0.5 -3.6875 0.5 -1 1 C-0.67 0.67 -0.34 0.34 0 0 Z " fill="#968179" transform="translate(105,173)"/>
<path d="M0 0 C2 2 2 2 2.5 5.5625 C2.665 6.696875 2.83 7.83125 3 9 C3.66 9.33 4.32 9.66 5 10 C6.41904116 14.54093172 6.09226843 19.2943099 6 24 C-0.09465148 17.49903842 -0.2313681 10.59192295 -0.0703125 2.125 C-0.04710937 1.42375 -0.02390625 0.7225 0 0 Z " fill="#E28C7D" transform="translate(147,128)"/>
<path d="M0 0 C0.33 0 0.66 0 1 0 C0.73885847 7.9648168 -1.87458093 13.25046116 -6 20 C-7.81987942 14.54036175 -7.53153389 9.18361702 -5 4 C-2.375 2.625 -2.375 2.625 0 2 C0 1.34 0 0.68 0 0 Z " fill="#AB978F" transform="translate(119,132)"/>
<path d="M0 0 C3.26647327 3.26647327 3.88753477 7.69542452 4.10705566 12.19372559 C4.07374382 14.52644792 3.96739036 16.84309753 3.828125 19.171875 C3.76440704 20.43913422 3.76440704 20.43913422 3.69940186 21.73199463 C3.60749198 23.50376946 3.50969305 25.27524782 3.40625 27.04638672 C3.24967704 29.7555883 3.11571148 32.46525124 2.984375 35.17578125 C2.89196063 36.90371778 2.79825581 38.63158589 2.703125 40.359375 C2.6634259 41.16671082 2.62372681 41.97404663 2.58282471 42.80584717 C2.34894405 46.61431056 2.12429308 49.75605908 0 53 C0.04543945 51.88310791 0.04543945 51.88310791 0.09179688 50.74365234 C1.25531602 25.35276426 1.25531602 25.35276426 0 0 Z " fill="#D87664" transform="translate(213,91)"/>
<path d="M0 0 C0.66 0 1.32 0 2 0 C1.67 1.65 1.34 3.3 1 5 C1.66 5 2.32 5 3 5 C3.33 4.34 3.66 3.68 4 3 C5.26237731 5.52475462 5.09856404 7.31200466 5.0625 10.125 C5.05347656 11.03507813 5.04445313 11.94515625 5.03515625 12.8828125 C5.02355469 13.58148438 5.01195312 14.28015625 5 15 C4.67 15 4.34 15 4 15 C4 13.35 4 11.7 4 10 C3.34 10 2.68 10 2 10 C2.0721875 10.68964844 2.144375 11.37929687 2.21875 12.08984375 C2.81193942 18.09588659 3.09892295 23.9657 3 30 C2.67 30 2.34 30 2 30 C0.75155935 19.96788765 -0.35762486 10.13270429 0 0 Z " fill="#AE9B92" transform="translate(259,216)"/>
<path d="M0 0 C0.85839823 3.06877368 1.24353521 6.01374822 1.5 9.1875 C1.91909539 14.13681698 2.43373964 19.06544544 3 24 C3.66 24 4.32 24 5 24 C5.33 21.69 5.66 19.38 6 17 C6.33 17 6.66 17 7 17 C7 19.64 7 22.28 7 25 C6.34 25 5.68 25 5 25 C5 26.65 5 28.3 5 30 C4.34 30 3.68 30 3 30 C2.51933465 28.10454608 2.04053257 26.20861961 1.5625 24.3125 C1.16224609 22.72888672 1.16224609 22.72888672 0.75390625 21.11328125 C-0.38630615 16.40473572 -1.13825976 12.17220314 -1.125 7.3125 C-1.12757813 6.35988281 -1.13015625 5.40726562 -1.1328125 4.42578125 C-1 2 -1 2 0 0 Z " fill="#A59189" transform="translate(133,85)"/>
<path d="M0 0 C1.125 3.75 1.125 3.75 0 6 C0.08840875 7.48098278 0.24366288 8.95827581 0.43359375 10.4296875 C1.0595244 16.01383283 1.11374729 21.51145033 1.0625 27.125 C1.05798828 28.08148438 1.05347656 29.03796875 1.04882812 30.0234375 C1.03720017 32.34902758 1.02086102 34.6744776 1 37 C0.67 37 0.34 37 0 37 C-0.06058594 35.89140625 -0.12117187 34.7828125 -0.18359375 33.640625 C-0.26802951 32.1770718 -0.35267599 30.71353075 -0.4375 29.25 C-0.47681641 28.52039063 -0.51613281 27.79078125 -0.55664062 27.0390625 C-0.76191011 23.56527125 -1.13560423 20.36038193 -2 17 C-2.12205329 14.32459184 -2.04467313 11.68038762 -2 9 C-2.66 9.99 -3.32 10.98 -4 12 C-3.67 9.36 -3.34 6.72 -3 4 C-2.34 4 -1.68 4 -1 4 C-0.67 2.68 -0.34 1.36 0 0 Z " fill="#A59189" transform="translate(234,230)"/>
<path d="M0 0 C0.33 0 0.66 0 1 0 C1.08040527 0.62342285 1.16081055 1.2468457 1.24365234 1.88916016 C1.61980175 4.8012327 1.99721944 7.71313862 2.375 10.625 C2.57863159 12.19677002 2.57863159 12.19677002 2.78637695 13.80029297 C3.67644818 20.63136594 4.62364376 27.44847394 5.66796875 34.2578125 C5.98436256 36.87085311 6.06259185 39.37114217 6 42 C3.7846203 38.67693045 3.481346 36.71755662 2.9296875 32.80078125 C2.75566406 31.59228516 2.58164062 30.38378906 2.40234375 29.13867188 C2.22832031 27.87603516 2.05429687 26.61339844 1.875 25.3125 C1.69324219 24.03826172 1.51148438 22.76402344 1.32421875 21.45117188 C0.87597683 18.30168259 0.43486669 15.15135924 0 12 C-0.33 12 -0.66 12 -1 12 C-0.67 8.04 -0.34 4.08 0 0 Z " fill="#DAC7C0" transform="translate(258,256)"/>
<path d="M0 0 C0 0.66 0 1.32 0 2 C-0.928125 1.835 -1.85625 1.67 -2.8125 1.5 C-5.95621353 0.92251612 -5.95621353 0.92251612 -9 1 C-9.94875 0.979375 -10.8975 0.95875 -11.875 0.9375 C-14.76255124 0.99525102 -17.19365244 1.3685718 -20 2 C-21.99897128 2.33944795 -23.99875639 2.67421616 -26 3 C-23.90154347 -0.1476848 -22.96674199 -0.75467734 -19.40625 -1.65234375 C-13.08329208 -2.565888 -5.43484949 -3.623233 0 0 Z " fill="#E7958A" transform="translate(193,66)"/>
<path d="M0 0 C4 4.75 4 4.75 4 7 C4.66 7 5.32 7 6 7 C6.2475 8.155 6.495 9.31 6.75 10.5 C7.52340836 13.66649075 8.58384029 16.3183197 10.125 19.1875 C11.76603357 22.26899637 12.44471603 24.44227174 12 28 C10.50924716 25.76387074 9.32239901 23.74047295 8.16015625 21.34765625 C7.81919922 20.65349609 7.47824219 19.95933594 7.12695312 19.24414062 C6.41960782 17.79440721 5.71386727 16.34388968 5.00976562 14.89257812 C3.56387184 11.95450017 2.2145243 9.28209474 0.2265625 6.66796875 C-1 5 -1 5 -0.6875 2.25 C-0.460625 1.5075 -0.23375 0.765 0 0 Z " fill="#9F7F76" transform="translate(205,71)"/>
<path d="M0 0 C0.99 0.33 1.98 0.66 3 1 C2.505 1.433125 2.01 1.86625 1.5 2.3125 C-0.33218192 3.99740483 -0.33218192 3.99740483 0 7 C-1.390625 8.46484375 -1.390625 8.46484375 -3.25 9.9375 C-5.99173002 12.16758872 -8.54642324 14.44828016 -11 17 C-10.71591279 12.31256102 -8.54932058 10.01930175 -5.47265625 6.74609375 C-3.91090937 5.03509553 -3.91090937 5.03509553 -2.93359375 2.84765625 C-2 1 -2 1 0 0 Z " fill="#948179" transform="translate(298,313)"/>
<path d="M0 0 C0.33 0 0.66 0 1 0 C1.8376018 5.54911192 2.034564 10.84451792 1.96484375 16.453125 C1.93808033 19.15146111 1.93808033 19.15146111 2.5625 22.375 C3.03656765 25.21940588 2.73290705 27.23124005 2 30 C1.67 30 1.34 30 1 30 C0.49161436 27.96040523 -0.00633886 25.91820862 -0.5 23.875 C-0.91765625 22.16957031 -0.91765625 22.16957031 -1.34375 20.4296875 C-2.83031301 12.66062603 -2.83031301 12.66062603 -1 9 C-0.77532169 7.46331135 -0.59203195 5.92031946 -0.4375 4.375 C-0.35371094 3.55773437 -0.26992187 2.74046875 -0.18359375 1.8984375 C-0.12300781 1.27195312 -0.06242187 0.64546875 0 0 Z " fill="#615550" transform="translate(81,288)"/>
<path d="M0 0 C0.66 0 1.32 0 2 0 C2.433422 8.15475474 1.29370226 15.17683695 -1 23 C-1.33 23 -1.66 23 -2 23 C-2.27990605 15.10042938 -1.51537186 7.7527507 0 0 Z " fill="#D86151" transform="translate(218,112)"/>
<path d="M0 0 C1.09441406 -0.02416992 1.09441406 -0.02416992 2.2109375 -0.04882812 C7.40278355 -0.0534637 10.98138524 0.99069262 15.625 3.3125 C11.88937169 4.55770944 11.17788159 3.73772471 7.625 2.3125 C-2.13826629 1.05894482 -9.39591582 2.50824585 -17.375 8.3125 C-18.4035849 9.2830736 -19.41641569 10.27273266 -20.375 11.3125 C-21.035 10.9825 -21.695 10.6525 -22.375 10.3125 C-20.98711198 9.01229989 -19.58930742 7.7226807 -18.1875 6.4375 C-17.41019531 5.71820313 -16.63289062 4.99890625 -15.83203125 4.2578125 C-10.81749537 0.28763942 -6.24626083 -0.02730009 0 0 Z " fill="#D98175" transform="translate(179.375,61.6875)"/>
<path d="M0 0 C0.33 0 0.66 0 1 0 C1.33 5.28 1.66 10.56 2 16 C1.01 16 0.02 16 -1 16 C-1.53190541 14.56656 -2.05015258 13.12804633 -2.5625 11.6875 C-2.85253906 10.88699219 -3.14257812 10.08648437 -3.44140625 9.26171875 C-4 7 -4 7 -3 4 C-2.34 4 -1.68 4 -1 4 C-0.67 2.68 -0.34 1.36 0 0 Z " fill="#97847C" transform="translate(92,344)"/>
<path d="M0 0 C0.99 0.495 0.99 0.495 2 1 C2 1.66 2 2.32 2 3 C2.66 3 3.32 3 4 3 C5.49821059 6.37097383 6 8.20442119 6 12 C5.34 12 4.68 12 4 12 C3.67 13.65 3.34 15.3 3 17 C-0.55140441 13.44859559 -0.05396178 8.36951506 -0.0625 3.5625 C-0.041875 2.386875 -0.02125 1.21125 0 0 Z " fill="#AA968E" transform="translate(120,262)"/>
<path d="M0 0 C2.72178647 2.37083979 3.88769607 4.6533784 5.1875 8 C5.53167969 8.86625 5.87585938 9.7325 6.23046875 10.625 C7 13 7 13 7 16 C1.125 13.25 1.125 13.25 0 11 C-0.07033769 9.12620395 -0.0843022 7.24998898 -0.0625 5.375 C-0.05347656 4.37210938 -0.04445312 3.36921875 -0.03515625 2.3359375 C-0.02355469 1.56507813 -0.01195312 0.79421875 0 0 Z " fill="#A28E85" transform="translate(143,143)"/>
<path d="M0 0 C0.33 0 0.66 0 1 0 C1.01458252 0.90242432 1.02916504 1.80484863 1.04418945 2.73461914 C1.10555577 6.11020007 1.17976329 9.48500696 1.26245117 12.86010742 C1.29552983 14.31572994 1.32361397 15.77147547 1.34643555 17.22729492 C1.38029921 19.33044436 1.4326236 21.43248375 1.48828125 23.53515625 C1.51446533 24.797229 1.54064941 26.05930176 1.56762695 27.35961914 C1.93251586 30.43181479 2.3370777 32.02612611 3.59448242 34.71655273 C5 38 5 38 4.6875 40.4375 C4.460625 40.953125 4.23375 41.46875 4 42 C-0.89709891 33.52647649 -0.46438829 25.39991129 -0.25 15.9375 C-0.22990039 14.38869502 -0.21165574 12.8398648 -0.1953125 11.29101562 C-0.15159863 7.52671183 -0.08276632 3.76363937 0 0 Z " fill="#DF7767" transform="translate(144,104)"/>
<path d="M0 0 C1.15294668 3.45884004 0.79943888 4.47127724 -0.21484375 7.88671875 C-0.48876953 8.82451172 -0.76269531 9.76230469 -1.04492188 10.72851562 C-1.33947266 11.70498047 -1.63402344 12.68144531 -1.9375 13.6875 C-2.22818359 14.67556641 -2.51886719 15.66363281 -2.81835938 16.68164062 C-3.53793217 19.1234696 -4.26540993 21.56265482 -5 24 C-5.66 24 -6.32 24 -7 24 C-7 22.35 -7 20.7 -7 19 C-6.34 19 -5.68 19 -5 19 C-5.103125 17.72125 -5.20625 16.4425 -5.3125 15.125 C-5.35907073 9.26640188 -2.89818838 4.95797226 0 0 Z " fill="#896A60" transform="translate(145,91)"/>
<path d="M0 0 C0.33 0 0.66 0 1 0 C3.17263844 17.10952769 3.17263844 17.10952769 -2 26 C-2.99 26 -3.98 26 -5 26 C-4.54625 25.113125 -4.0925 24.22625 -3.625 23.3125 C-3.08875 22.219375 -2.5525 21.12625 -2 20 C-1.6390625 19.2678125 -1.278125 18.535625 -0.90625 17.78125 C0.25371293 14.22136378 0.21696853 10.88392734 0.125 7.1875 C0.11597656 6.49462891 0.10695313 5.80175781 0.09765625 5.08789062 C0.07426157 3.39177605 0.03839641 1.69584129 0 0 Z " fill="#BEABA3" transform="translate(312,272)"/>
<path d="M0 0 C5.75 -0.125 5.75 -0.125 8 1 C9.76867455 1.09683564 11.54118303 1.12979382 13.3125 1.125 C14.25738281 1.12757813 15.20226562 1.13015625 16.17578125 1.1328125 C18.88595736 1.005363 21.35973585 0.60596226 24 0 C22.28438075 2.10374295 21.36104206 2.92646556 18.66015625 3.4765625 C17.80292969 3.52554688 16.94570312 3.57453125 16.0625 3.625 C12.42804023 3.84862801 12.42804023 3.84862801 8.8828125 4.60546875 C5.71546235 5.2691666 3.66217704 3.59730623 1 2 C0.67 1.34 0.34 0.68 0 0 Z " fill="#968179" transform="translate(115,189)"/>
<path d="M0 0 C0.33 0 0.66 0 1 0 C1.2594518 17.55623819 1.2594518 17.55623819 -2.5625 21.9375 C-3.7690625 22.9584375 -3.7690625 22.9584375 -5 24 C-4.37177281 16.71256454 -4.37177281 16.71256454 -2.5 13.125 C-0.4424101 8.83835438 -0.26942902 4.70107182 0 0 Z " fill="#D98B7D" transform="translate(211,130)"/>
<path d="M0 0 C0.33 0 0.66 0 1 0 C1.10957031 0.55945313 1.21914062 1.11890625 1.33203125 1.6953125 C1.49058594 2.49710937 1.64914063 3.29890625 1.8125 4.125 C1.99039063 5.02734375 2.16828125 5.9296875 2.3515625 6.859375 C2.81944694 9.12551411 3.31810136 11.385376 3.8359375 13.640625 C4.11695313 14.87296875 4.39796875 16.1053125 4.6875 17.375 C4.95949219 18.53773437 5.23148438 19.70046875 5.51171875 20.8984375 C5.96245761 23.76153074 5.98269833 25.32231194 5 28 C0.58350355 19.36775695 -0.37638767 9.5978857 0 0 Z " fill="#836E65" transform="translate(230,78)"/>
<path d="M0 0 C0.268125 0.5775 0.53625 1.155 0.8125 1.75 C1.89177345 4.0147112 1.89177345 4.0147112 3.49609375 5.671875 C5.56636249 8.87675856 5.78988592 11.730033 6.25 15.5 C6.34023437 16.16386719 6.43046875 16.82773437 6.5234375 17.51171875 C6.94314494 20.90322562 7.16037931 23.75093794 6 27 C4.649328 23.4882528 3.86888163 20.29014315 3.5625 16.5625 C3.28181822 13.46980261 2.74984132 11.06478816 1.4375 8.25 C0.05559537 5.12569389 -0.30442747 3.34870216 0 0 Z " fill="#191817" transform="translate(78,314)"/>
<path d="M0 0 C0.33 0.99 0.66 1.98 1 3 C1.66 3 2.32 3 3 3 C3.70005949 5.07914664 4.38462244 7.16351586 5.0625 9.25 C5.44535156 10.41015625 5.82820312 11.5703125 6.22265625 12.765625 C6.95211763 15.80077085 7.11889082 17.15703213 6 20 C5.67 18.02 5.34 16.04 5 14 C4.34 14 3.68 14 3 14 C-0.00559652 8.99067246 -0.29341888 5.67276511 0 0 Z " fill="#8A756C" transform="translate(223,58)"/>
<path d="M0 0 C0.66 0 1.32 0 2 0 C4.29612756 9.41002278 4.29612756 9.41002278 4 14 C3.01 14 2.02 14 1 14 C0.06380187 10.84493858 -0.1057123 8.03413498 -0.0625 4.75 C-0.05347656 3.85796875 -0.04445312 2.9659375 -0.03515625 2.046875 C-0.02355469 1.37140625 -0.01195312 0.6959375 0 0 Z " fill="#D6C4BD" transform="translate(253,346)"/>
<path d="M0 0 C0.33 0 0.66 0 1 0 C1.11593506 0.7113208 1.23187012 1.4226416 1.35131836 2.15551758 C1.8775008 5.37493367 2.40745549 8.59371761 2.9375 11.8125 C3.11990234 12.93205078 3.30230469 14.05160156 3.49023438 15.20507812 C3.66748047 16.27822266 3.84472656 17.35136719 4.02734375 18.45703125 C4.18968506 19.44678955 4.35202637 20.43654785 4.51928711 21.45629883 C4.96143193 24.10856614 4.96143193 24.10856614 6 27 C5.01 27.33 4.02 27.66 3 28 C2.49106423 25.02211984 1.99269364 22.0430746 1.5 19.0625 C1.35691406 18.23169922 1.21382813 17.40089844 1.06640625 16.54492188 C0.15270923 10.95396627 -0.13719631 5.66506422 0 0 Z " fill="#8C776F" transform="translate(274,313)"/>
<path d="M0 0 C0.66 0.33 1.32 0.66 2 1 C2 6.94 2 12.88 2 19 C1.67 19 1.34 19 1 19 C-2.86206897 5.72413793 -2.86206897 5.72413793 0 0 Z " fill="#343231" transform="translate(78,254)"/>
<path d="M0 0 C0.185625 0.9590625 0.185625 0.9590625 0.375 1.9375 C0.684375 2.9584375 0.684375 2.9584375 1 4 C1.66 4.33 2.32 4.66 3 5 C2.34 8.3 1.68 11.6 1 15 C0.34 14.01 -0.32 13.02 -1 12 C-1.66 12.66 -2.32 13.32 -3 14 C-2.58846263 9.02906176 -2.20399168 4.55491614 0 0 Z " fill="#B19E96" transform="translate(220,180)"/>
<path d="M0 0 C0.89203125 0.00902344 1.7840625 0.01804688 2.703125 0.02734375 C3.37859375 0.03894531 4.0540625 0.05054688 4.75 0.0625 C4.75 0.3925 4.75 0.7225 4.75 1.0625 C3.23019531 1.33513672 3.23019531 1.33513672 1.6796875 1.61328125 C0.32803647 1.86671582 -1.02352119 2.12064865 -2.375 2.375 C-3.04015625 2.49294922 -3.7053125 2.61089844 -4.390625 2.73242188 C-8.78208322 3.57196536 -12.33029254 4.94124655 -16.25 7.0625 C-18.625 7.75 -18.625 7.75 -20.25 8.0625 C-20.25 7.4025 -20.25 6.7425 -20.25 6.0625 C-18.50197854 5.24575204 -16.75149811 4.43426549 -15 3.625 C-14.02546875 3.17253906 -13.0509375 2.72007812 -12.046875 2.25390625 C-7.83890308 0.46140425 -4.57189224 -0.06015648 0 0 Z " fill="#D2BFB8" transform="translate(138.25,165.9375)"/>
<path d="M0 0 C0.66 0 1.32 0 2 0 C3.2890625 1.4609375 3.2890625 1.4609375 4.625 3.375 C5.29402344 4.31472656 5.29402344 4.31472656 5.9765625 5.2734375 C7 7 7 7 7 9 C7.99 9.33 8.98 9.66 10 10 C12.1519437 13.22791555 12.20086443 14.28400809 12 18 C11.34 17.67 10.68 17.34 10 17 C10 16.01 10 15.02 10 14 C9.34 14 8.68 14 8 14 C4 7.25 4 7.25 4 5 C3.34 5 2.68 5 2 5 C1.34 3.35 0.68 1.7 0 0 Z " fill="#AD9A92" transform="translate(201,64)"/>
<path d="M0 0 C1.98728298 1.65162929 2.90895662 2.61497685 3.51171875 5.1640625 C3.56972656 5.97617188 3.62773437 6.78828125 3.6875 7.625 C3.75195312 8.5015625 3.81640625 9.378125 3.8828125 10.28125 C4.05152564 14.1953949 4.06318405 18.08258919 4 22 C3.67 22 3.34 22 3 22 C2.87625 20.824375 2.7525 19.64875 2.625 18.4375 C2.27943101 15.59281615 1.76576695 13.21463038 0.9375 10.4375 C-0.05139349 6.81155722 -0.15264425 3.73978403 0 0 Z " fill="#AD9991" transform="translate(236,231)"/>
<path d="M0 0 C1.54561243 4.83843892 0.63394307 9.27099169 -1 14 C-3.625 16.625 -3.625 16.625 -6 18 C-4 12 -2 6 0 0 Z " fill="#866A61" transform="translate(220,124)"/>
<path d="M0 0 C1.36176372 4.35571231 0.22219382 7.73819429 -1 12 C-1.309375 13.27875 -1.61875 14.5575 -1.9375 15.875 C-3 19 -3 19 -6 21 C-5.21511292 16.42600291 -3.84473878 12.09842491 -2.4375 7.6875 C-2.20353516 6.94693359 -1.96957031 6.20636719 -1.72851562 5.44335938 C-1.15468028 3.62816595 -0.57765989 1.81397994 0 0 Z " fill="#B19D95" transform="translate(207,220)"/>
<path d="M0 0 C0.33 0 0.66 0 1 0 C1 9.24 1 18.48 1 28 C0.34 28.33 -0.32 28.66 -1 29 C-1.33 27.02 -1.66 25.04 -2 23 C-1.67 23 -1.34 23 -1 23 C-0.67 15.41 -0.34 7.82 0 0 Z " fill="#AB978F" transform="translate(248,171)"/>
<path d="M0 0 C2.48724903 3.31633204 4.23109915 6.29373156 6 10 C5.01 11.485 5.01 11.485 4 13 C4 12.34 4 11.68 4 11 C2.68 10.67 1.36 10.34 0 10 C0 6.7 0 3.4 0 0 Z " fill="#89746C" transform="translate(294,207)"/>
<path d="M0 0 C0.33 1.32 0.66 2.64 1 4 C1.66 4 2.32 4 3 4 C3.33 9.61 3.66 15.22 4 21 C3.67 21 3.34 21 3 21 C1.18225815 13.90215087 -0.43230491 7.34918342 0 0 Z " fill="#A8948C" transform="translate(237,132)"/>
<path d="M0 0 C2.85793316 2.85793316 2.40799941 5.14665584 2.625 9.125 C2.69976562 10.40632812 2.77453125 11.68765625 2.8515625 13.0078125 C2.92503906 14.48894531 2.92503906 14.48894531 3 16 C-0.91258965 10.13111552 -1.15564623 6.81831273 0 0 Z " fill="#937E76" transform="translate(299,217)"/>
<path d="M0 0 C2.02168235 4.0433647 2.35927761 6.32129345 2.625 10.75 C2.69976562 11.92046875 2.77453125 13.0909375 2.8515625 14.296875 C2.90054688 15.18890625 2.94953125 16.0809375 3 17 C2.34 16.34 1.68 15.68 1 15 C1 14.01 1 13.02 1 12 C0.34 12 -0.32 12 -1 12 C-0.67 8.04 -0.34 4.08 0 0 Z " fill="#968279" transform="translate(218,91)"/>
<path d="M0 0 C-1 3 -1 3 -3.6875 4.4375 C-5.3271875 5.2109375 -5.3271875 5.2109375 -7 6 C-9.04622455 7.2748487 -11.01519198 8.62953732 -13 10 C-13.66 9.67 -14.32 9.34 -15 9 C-14 6 -14 6 -11.34765625 4.39453125 C-10.26355469 3.87246094 -9.17945313 3.35039062 -8.0625 2.8125 C-6.98097656 2.28269531 -5.89945313 1.75289062 -4.78515625 1.20703125 C-2 0 -2 0 0 0 Z " fill="#B49A92" transform="translate(199,161)"/>
<path d="M0 0 C0.76849965 2.25542675 1.15628879 3.53906176 0.37915039 5.83105469 C0.03875732 6.43852539 -0.30163574 7.04599609 -0.65234375 7.671875 C-1.01650391 8.33574219 -1.38066406 8.99960938 -1.75585938 9.68359375 C-2.14580078 10.36550781 -2.53574219 11.04742187 -2.9375 11.75 C-3.32357422 12.44738281 -3.70964844 13.14476562 -4.10742188 13.86328125 C-5.06073637 15.5816012 -6.02895346 17.29163804 -7 19 C-8 17 -8 17 -6.875 13.4375 C-5.01386512 8.7197395 -2.55885109 4.36926352 0 0 Z " fill="#A28E86" transform="translate(217,147)"/>
<path d="M0 0 C0.33 0 0.66 0 1 0 C3.82635836 7.98030597 2.7431678 15.72472614 2 24 C1.67 24 1.34 24 1 24 C0.09958689 15.97667603 -0.11547323 8.07029553 0 0 Z " fill="#AB978F" transform="translate(264,262)"/>
<path d="M0 0 C0.33 0.99 0.66 1.98 1 3 C1.66 3 2.32 3 3 3 C3.33895656 4.72807318 3.67091525 6.45751974 4 8.1875 C4.185625 9.15042969 4.37125 10.11335937 4.5625 11.10546875 C4.96877612 13.7934206 5.07933572 16.28771019 5 19 C2.93421237 15.90131855 2.25308642 13.65023694 1.375 10.0625 C1.11460937 9.02222656 0.85421875 7.98195312 0.5859375 6.91015625 C0 4 0 4 0 0 Z " fill="#BAA79F" transform="translate(304,243)"/>
<path d="M0 0 C2.68666139 5.1814184 4.27625249 9.06057157 4 15 C4.66 15.33 5.32 15.66 6 16 C5.01 16.66 4.02 17.32 3 18 C2.49309416 15.93918639 1.99475381 13.87626474 1.5 11.8125 C1.2215625 10.66394531 0.943125 9.51539063 0.65625 8.33203125 C0.08504615 5.43181171 -0.13283779 2.93903615 0 0 Z " fill="#9F8B82" transform="translate(276,321)"/>
<path d="M0 0 C1.12642186 3.37926557 0.96344705 3.72928278 -0.43359375 6.79296875 C-0.75263672 7.50517578 -1.07167969 8.21738281 -1.40039062 8.95117188 C-1.74263672 9.68916016 -2.08488281 10.42714844 -2.4375 11.1875 C-2.77587891 11.93708984 -3.11425781 12.68667969 -3.46289062 13.45898438 C-4.2999411 15.30992698 -5.14885404 17.15549666 -6 19 C-6.33 19 -6.66 19 -7 19 C-6.67422369 11.83292123 -3.34556372 6.23072876 0 0 Z " fill="#D7C5BE" transform="translate(176,308)"/>
<path d="M0 0 C3.21580751 2.63885381 4.29440276 5.73085433 5.75 9.5625 C6.19859375 10.71878906 6.6471875 11.87507813 7.109375 13.06640625 C8 16 8 16 7 18 C3.85180745 12.13784836 1.73624758 6.4188547 0 0 Z " fill="#A38F86" transform="translate(130,294)"/>
<path d="M0 0 C0.33 0 0.66 0 1 0 C1.10824843 1.6026782 1.18570645 3.20745748 1.25 4.8125 C1.29640625 5.70582031 1.3428125 6.59914063 1.390625 7.51953125 C1 10 1 10 -1.015625 11.82421875 C-1.67046875 12.21222656 -2.3253125 12.60023438 -3 13 C-4.23593891 9.29218328 -3.5678132 8.32489747 -2.0625 4.8125 C-1.68222656 3.91144531 -1.30195313 3.01039063 -0.91015625 2.08203125 C-0.60980469 1.39496094 -0.30945313 0.70789063 0 0 Z " fill="#AF9B93" transform="translate(315,284)"/>
<path d="M0 0 C3.96 0 7.92 0 12 0 C8.62719602 1.68640199 6.56565003 2.30426341 3 3 C1.3207762 3.63437344 -0.35008418 4.29289322 -2 5 C-1.34 3.35 -0.68 1.7 0 0 Z " fill="#B09D95" transform="translate(93,205)"/>
<path d="M0 0 C5.15137665 5.61968362 5.25711129 12.80088376 5 20 C4.67 20 4.34 20 4 20 C0.74031891 6.3667426 0.74031891 6.3667426 0 0 Z " fill="#E08371" transform="translate(209,83)"/>
<path d="M0 0 C3.27779873 3.27779873 3.40494034 3.8360813 3.6875 8.1875 C3.75324219 9.08855469 3.81898437 9.98960937 3.88671875 10.91796875 C3.92410156 11.60503906 3.96148437 12.29210937 4 13 C3.01 13 2.02 13 1 13 C0.67 8.71 0.34 4.42 0 0 Z M1 4 C2 6 2 6 2 6 Z " fill="#B19E96" transform="translate(93,347)"/>
<path d="M0 0 C2.98206285 2.55605387 4.34597235 5.47620196 6 9 C6.4125 9.721875 6.825 10.44375 7.25 11.1875 C8 13 8 13 7 16 C5.82268014 14.0898586 4.65848895 12.17162056 3.5 10.25 C2.8503125 9.18265625 2.200625 8.1153125 1.53125 7.015625 C0 4 0 4 0 0 Z " fill="#AB978E" transform="translate(150,338)"/>
<path d="M0 0 C3.21852831 0.63065757 5.50801069 1.78020695 8.25 3.5625 C8.95640625 4.01753906 9.6628125 4.47257813 10.390625 4.94140625 C11.18726562 5.46541016 11.18726562 5.46541016 12 6 C10.02 6.99 10.02 6.99 8 8 C8 7.34 8 6.68 8 6 C7.05125 5.7525 6.1025 5.505 5.125 5.25 C2 4 2 4 0.625 1.875 C0.41875 1.25625 0.2125 0.6375 0 0 Z " fill="#DBC9C2" transform="translate(109,187)"/>
<path d="M0 0 C1.4606285 2.64738916 2 3.89448334 2 7 C2.66 7.33 3.32 7.66 4 8 C4.40729228 10.32156597 4.74438677 12.6568787 5 15 C4.01 15 3.02 15 2 15 C0.2520497 9.75614911 -0.19392201 5.52677733 0 0 Z " fill="#E79A8D" transform="translate(148,130)"/>
<path d="M0 0 C3.37505301 1.80002827 3.99592072 2.98796613 5.25 6.6875 C6.12840755 10.84067253 6.15115771 14.76758409 6 19 C4.49056108 16.22011666 3.60895955 13.72416914 3 10.625 C2.24047368 6.97806808 1.26067719 3.51188647 0 0 Z " fill="#97837A" transform="translate(217,47)"/>
<path d="M0 0 C3.27779873 3.27779873 3.40494034 3.8360813 3.6875 8.1875 C3.75324219 9.08855469 3.81898438 9.98960937 3.88671875 10.91796875 C3.92410156 11.60503906 3.96148437 12.29210937 4 13 C3.01 13 2.02 13 1 13 C0.67 8.71 0.34 4.42 0 0 Z " fill="#97827A" transform="translate(241,347)"/>
<path d="M0 0 C1.32 0.33 2.64 0.66 4 1 C4 1.66 4 2.32 4 3 C4.66 3.33 5.32 3.66 6 4 C5.01 4.495 5.01 4.495 4 5 C4 8.3 4 11.6 4 15 C1.27893306 12.27893306 1.39344428 10.15223689 0.875 6.375 C0.70742187 5.18648438 0.53984375 3.99796875 0.3671875 2.7734375 C0.24601563 1.85820313 0.12484375 0.94296875 0 0 Z " fill="#8A746C" transform="translate(132,112)"/>
<path d="M0 0 C1.98 0.99 1.98 0.99 4 2 C3.67 5.3 3.34 8.6 3 12 C1 11 1 11 0 8 C-0.12781786 5.32605036 -0.04391871 2.67904143 0 0 Z " fill="#9E8A81" transform="translate(123,273)"/>
<path d="M0 0 C0.66 0 1.32 0 2 0 C1.56179109 4.55737263 1.14958831 7.57653445 -2 11 C-2.66 10.67 -3.32 10.34 -4 10 C-2.68 6.7 -1.36 3.4 0 0 Z " fill="#8D7870" transform="translate(108,153)"/>
<path d="M0 0 C0.99 0.495 0.99 0.495 2 1 C2 1.66 2 2.32 2 3 C2.66 3 3.32 3 4 3 C4.33 4.65 4.66 6.3 5 8 C4.34 7.67 3.68 7.34 3 7 C2.34 8.65 1.68 10.3 1 12 C-0.3271261 8.0186217 -0.06915913 4.14954773 0 0 Z " fill="#B4A199" transform="translate(120,262)"/>
<path d="M0 0 C3.68613384 2.45742256 3.7065486 3.87712366 5 8 C5.556875 8.9075 6.11375 9.815 6.6875 10.75 C7.120625 11.4925 7.55375 12.235 8 13 C7.67 13.66 7.34 14.32 7 15 C0 5.60526316 0 5.60526316 0 0 Z " fill="#867068" transform="translate(138,131)"/>
<path d="M0 0 C0.66 0 1.32 0 2 0 C2.33 3.3 2.66 6.6 3 10 C2.01 10.33 1.02 10.66 0 11 C0 7.37 0 3.74 0 0 Z " fill="#9D8880" transform="translate(261,226)"/>
<path d="M0 0 C0.66 0.33 1.32 0.66 2 1 C0.02 3.31 -1.96 5.62 -4 8 C-5.32 7.67 -6.64 7.34 -8 7 C-5.36 4.69 -2.72 2.38 0 0 Z " fill="#A39087" transform="translate(160,175)"/>
<path d="M0 0 C1.43931117 0.45261358 2.87638999 0.91232979 4.3125 1.375 C5.11300781 1.63023437 5.91351563 1.88546875 6.73828125 2.1484375 C9 3 9 3 12 5 C10.56163249 4.88541307 9.12429034 4.75790884 7.6875 4.625 C6.88699219 4.55539063 6.08648437 4.48578125 5.26171875 4.4140625 C3 4 3 4 0 2 C0 1.34 0 0.68 0 0 Z " fill="#957A72" transform="translate(165,164)"/>
<path d="M0 0 C1.13643966 3.40931897 0.86747764 4.00335456 -0.4375 7.1875 C-0.72496094 7.90292969 -1.01242188 8.61835937 -1.30859375 9.35546875 C-1.53675781 9.89816406 -1.76492187 10.44085938 -2 11 C-2.66 11 -3.32 11 -4 11 C-4.33 11.99 -4.66 12.98 -5 14 C-4.34580901 8.93001981 -2.1453591 4.58009223 0 0 Z " fill="#8E7268" transform="translate(145,91)"/>
<path d="M0 0 C2 2 2 2 2.125 5.625 C2.08375 6.73875 2.0425 7.8525 2 9 C1.01 9 0.02 9 -1 9 C-1.125 2.25 -1.125 2.25 0 0 Z " fill="#B6A39B" transform="translate(225,351)"/>
<path d="M0 0 C0.99 0.33 1.98 0.66 3 1 C0.69 3.31 -1.62 5.62 -4 8 C-4.66 7.67 -5.32 7.34 -6 7 C-2.25 1.125 -2.25 1.125 0 0 Z " fill="#A6928A" transform="translate(298,313)"/>
<path d="M0 0 C1.15957207 3.47871621 0.77456651 4.34219645 -0.4375 7.6875 C-0.72496094 8.49574219 -1.01242188 9.30398437 -1.30859375 10.13671875 C-1.65083984 11.05904297 -1.65083984 11.05904297 -2 12 C-3.180933 8.457201 -3.27028374 5.71640139 -3 2 C-2.01 1.34 -1.02 0.68 0 0 Z " fill="#A49088" transform="translate(115,140)"/>
<path d="M0 0 C0.33 0 0.66 0 1 0 C1 3.96 1 7.92 1 12 C-1.24497221 9.75502779 -1.37003419 9.03972651 -1.75 6 C-1.84796875 5.29875 -1.9459375 4.5975 -2.046875 3.875 C-2 2 -2 2 0 0 Z " fill="#1C1B1A" transform="translate(79,243)"/>
<path d="M0 0 C0.33 0.66 0.66 1.32 1 2 C0.22265625 3.9453125 0.22265625 3.9453125 -0.9375 6.125 C-1.31777344 6.84945312 -1.69804688 7.57390625 -2.08984375 8.3203125 C-2.54037109 9.15175781 -2.54037109 9.15175781 -3 10 C-4.32 10 -5.64 10 -7 10 C-5.87327121 6.61981362 -4.51913637 5.4427989 -2 3 C-1.34 2.01 -0.68 1.02 0 0 Z " fill="#A18D85" transform="translate(110,157)"/>
<path d="M0 0 C0.88336837 2.4667645 1.1312406 3.63859372 0.22265625 6.140625 C-0.16019531 6.83671875 -0.54304687 7.5328125 -0.9375 8.25 C-1.31777344 8.95640625 -1.69804687 9.6628125 -2.08984375 10.390625 C-2.39019531 10.92171875 -2.69054687 11.4528125 -3 12 C-3.88336837 9.5332355 -4.1312406 8.36140628 -3.22265625 5.859375 C-2.83980469 5.16328125 -2.45695313 4.4671875 -2.0625 3.75 C-1.68222656 3.04359375 -1.30195313 2.3371875 -0.91015625 1.609375 C-0.60980469 1.07828125 -0.30945313 0.5471875 0 0 Z " fill="#E69584" transform="translate(152,88)"/>
<path d="M0 0 C0.66 0.33 1.32 0.66 2 1 C0.88200014 2.33920838 -0.24461897 3.67122556 -1.375 5 C-2.00148437 5.7425 -2.62796875 6.485 -3.2734375 7.25 C-4.12808594 8.11625 -4.12808594 8.11625 -5 9 C-5.66 9 -6.32 9 -7 9 C-7 8.01 -7 7.02 -7 6 C-5.03277992 4.61876037 -3.03131672 3.28511874 -1 2 C-0.67 1.34 -0.34 0.68 0 0 Z " fill="#AD9991" transform="translate(195,182)"/>
<path d="M0 0 C3.68754757 0.49831724 5.60490662 1.10067643 8 4 C7.67 4.99 7.34 5.98 7 7 C5.83040013 6.02433888 4.66438823 5.044375 3.5 4.0625 C2.8503125 3.51722656 2.200625 2.97195312 1.53125 2.41015625 C1.0259375 1.94480469 0.520625 1.47945313 0 1 C0 0.67 0 0.34 0 0 Z " fill="#AD8177" transform="translate(195,66)"/>
<path d="M0 0 C0.66 0 1.32 0 2 0 C0.14285714 7.57142857 0.14285714 7.57142857 -3 10 C-2.49287967 6.28111761 -1.88391785 3.26545761 0 0 Z " fill="#CCBAB2" transform="translate(180,298)"/>
<path d="M0 0 C2.1875 -0.375 2.1875 -0.375 5 0 C6.99022836 1.83961648 8.38989899 3.79186148 10 6 C9.4225 5.690625 8.845 5.38125 8.25 5.0625 C6.15705816 4.07416636 4.25464725 3.4831387 2 3 C2 2.34 2 1.68 2 1 C1.34 0.67 0.68 0.34 0 0 Z " fill="#8B746B" transform="translate(153,157)"/>
<path d="M0 0 C0.99 0 1.98 0 3 0 C3 1.98 3 3.96 3 6 C2.01 5.67 1.02 5.34 0 5 C0 3.35 0 1.7 0 0 Z " fill="#8E7970" transform="translate(127,284)"/>
<path d="M0 0 C2.12046792 3.53411321 2.53199289 6.94393835 3 11 C1.5 10 1.5 10 0 8 C-0.27345479 5.28153765 -0.13491285 2.74322801 0 0 Z " fill="#9D8880" transform="translate(309,248)"/>
<path d="M0 0 C0.33 0 0.66 0 1 0 C0.25 7.75 0.25 7.75 -2 10 C-2.17942163 6.05272412 -2.09350689 3.4019487 0 0 Z " fill="#A6928A" transform="translate(223,129)"/>
</svg>
