<?xml version="1.0" encoding="UTF-8"?>
<svg version="1.1" xmlns="http://www.w3.org/2000/svg" width="360" height="360">
<path d="M0 0 C3.875 1.875 3.875 1.875 5 3 C4.90997602 5.02408755 4.75358962 7.04544287 4.5625 9.0625 C4.46066406 10.16722656 4.35882813 11.27195312 4.25390625 12.41015625 C4.17011719 13.26480469 4.08632812 14.11945313 4 15 C4.556875 14.030625 5.11375 13.06125 5.6875 12.0625 C8 9 8 9 10.6875 8.0625 C11.8321875 8.0315625 11.8321875 8.0315625 13 8 C13.495 8.495 13.495 8.495 14 9 C13.72286623 16.34404482 10.99819396 22.3619322 8 29 C8.99 28.34 9.98 27.68 11 27 C13.6875 26.875 13.6875 26.875 16 27 C16.66 28.65 17.32 30.3 18 32 C17.0925 32.70125 16.185 33.4025 15.25 34.125 C12.13175399 36.70889869 10.18175536 39.58191661 8 43 C7.236875 43.680625 6.47375 44.36125 5.6875 45.0625 C5.130625 45.701875 4.57375 46.34125 4 47 C4.30178527 48.67266689 4.64257357 50.3383336 5 52 C5.05811279 54.36649163 5.06151646 56.73460412 5.02734375 59.1015625 C5.01468425 60.49348698 5.00232428 61.88541421 4.99023438 63.27734375 C4.96560107 65.44263581 4.93776816 67.60777888 4.90405273 69.77294922 C4.79012335 77.59729627 4.84397746 85.09137863 6.56469727 92.77880859 C7 95 7 95 7 99 C16.16950746 92.71632738 22.86714003 86.08222483 29.4296875 77.02734375 C34.03502817 71.04585098 40.49983466 67.62873308 47 64 C48.38714958 63.21637337 48.38714958 63.21637337 49.80232239 62.41691589 C53.26342577 60.88327399 55.61626853 60.59278695 59.3815918 60.5324707 C61.24964729 60.49407829 61.24964729 60.49407829 63.15544128 60.45491028 C64.5033553 60.44368079 65.85128308 60.43401059 67.19921875 60.42578125 C68.59918862 60.41103665 69.99915707 60.396157 71.39912415 60.38114929 C74.33017565 60.35422278 77.26097504 60.34062679 80.19213867 60.33422852 C83.92051341 60.32339051 87.64616056 60.26176548 91.37373638 60.1875124 C94.26602297 60.13876327 97.15767101 60.12668919 100.05033302 60.12416649 C101.42296473 60.1170051 102.79560092 60.09679625 104.16782188 60.06246376 C114.47612639 59.82433356 120.42934226 61.98220142 128 69 C144.91579701 85.28703644 150.99029068 105.56554669 151.6328125 128.55859375 C151.67437469 129.82413589 151.71593689 131.08967804 151.75875854 132.39356995 C151.84476123 135.05506889 151.92782761 137.71643748 152.00537109 140.37817383 C152.10374228 143.75450057 152.21082583 147.13047334 152.32132149 150.506423 C152.42797953 153.77372507 152.53052268 157.04115238 152.6328125 160.30859375 C152.67028595 161.5027037 152.7077594 162.69681366 152.74636841 163.92710876 C153.11164445 176.37787393 153.00486208 188.31373261 151.31201172 200.65576172 C150.98360045 203.12321475 150.69714033 205.59381928 150.41015625 208.06640625 C150.19192318 209.75284055 149.9719097 211.43904555 149.75 213.125 C149.66516357 213.90625244 149.58032715 214.68750488 149.49291992 215.49243164 C148.4870923 222.58982671 144.99614248 226.66154733 139.4375 231 C136.45794046 232.2223834 135.01289431 232.05858449 132 231 C131.34 230.34 130.68 229.68 130 229 C130.33748845 225.49012008 130.98323875 222.09051072 131.625 218.625 C131.74875 217.75875 131.8725 216.8925 132 216 C131.67 215.67 131.34 215.34 131 215 C130.360625 215.185625 129.72125 215.37125 129.0625 215.5625 C128.0415625 215.7790625 128.0415625 215.7790625 127 216 C124.54463491 213.54463491 124.38023721 212.42213488 124 209 C124.2326355 207.485271 124.2326355 207.485271 124.4699707 205.93994141 C125.09261093 201.31158212 125.16210839 196.81185148 125.16796875 192.1484375 C125.17129715 191.21254791 125.17462555 190.27665833 125.17805481 189.31240845 C125.18309905 187.33734627 125.18546391 185.36227564 125.18530273 183.38720703 C125.18747802 180.40512577 125.20562978 177.42342167 125.22460938 174.44140625 C125.25317589 164.43056885 125.06058555 154.83710702 123 145 C123.03552979 146.30557861 123.07105957 147.61115723 123.10766602 148.95629883 C123.23898423 153.84465294 123.36180147 158.7331914 123.48217773 163.62182617 C123.53523161 165.7293068 123.59052725 167.83673233 123.64819336 169.9440918 C123.73113766 172.98995074 123.80575997 176.03592306 123.87890625 179.08203125 C123.91945885 180.47335014 123.91945885 180.47335014 123.96083069 181.89277649 C124.30768738 197.42832326 124.30768738 197.42832326 121.8515625 204.13671875 C119.13609063 206.86937715 117.19237655 206.70400614 113.375 206.8125 C112.68116211 206.83763672 111.98732422 206.86277344 111.27246094 206.88867188 C103.88107866 207.11178389 96.47494921 207.03027354 89.08129883 206.97729492 C79.56012516 206.92947852 70.07136491 207.28940296 60.56542969 207.8203125 C44.32835831 208.57927581 44.32835831 208.57927581 39.28930664 204.67431641 C36.63242932 201.22404853 36.8845565 197.3792637 36.91821289 193.16845703 C36.9247438 191.99268097 36.93127472 190.81690491 36.93800354 189.60549927 C36.94943893 188.33576263 36.96087433 187.066026 36.97265625 185.7578125 C36.98207038 183.74743702 36.99147178 181.73706139 37.00016689 179.72668266 C37.02299612 174.78387001 37.05628651 169.84114169 37.09594727 164.8984375 C37.12309775 161.45084241 37.1399026 158.00331252 37.15081596 154.55562973 C37.15986749 152.63169058 37.18021918 150.70781489 37.20094299 148.78396606 C37.224626 140.32154435 36.41235172 132.34017568 35 124 C31.34196126 125.41399022 28.26778163 127.01063937 25 129.1875 C8.28151261 140 8.28151261 140 3 140 C2.67 140.66 2.34 141.32 2 142 C0.00390625 142.59765625 0.00390625 142.59765625 -2.4375 143.0625 C-5.82474047 143.7144301 -5.82474047 143.7144301 -9 145 C-13.89107697 143.59070664 -16.12662894 142.3100566 -18.9765625 138.03515625 C-22.83753897 130.60072284 -25.44661506 123.26400787 -27 115 C-27.226875 113.845 -27.45375 112.69 -27.6875 111.5 C-28.4994428 102.40624062 -27.91805284 93.47067654 -26.79296875 84.43359375 C-26.6669075 83.39227798 -26.54084625 82.35096222 -26.41096497 81.27809143 C-26.14487212 79.10216387 -25.87495421 76.92670084 -25.60131836 74.75170898 C-25.18483844 71.41618397 -24.79021492 68.07851212 -24.39648438 64.74023438 C-24.13413186 62.61702406 -23.87050618 60.49397058 -23.60546875 58.37109375 C-23.43183052 56.8758744 -23.43183052 56.8758744 -23.25468445 55.35044861 C-23.07483757 53.96739281 -23.07483757 53.96739281 -22.89135742 52.55639648 C-22.7914299 51.74653793 -22.69150238 50.93667938 -22.58854675 50.10227966 C-21.89542245 47.62645066 -20.79063585 46.77767204 -19 45 C-19.28076792 41.69523952 -19.28076792 41.69523952 -20 38 C-19.94199219 36.15728516 -19.94199219 36.15728516 -19.8828125 34.27734375 C-19.84135803 29.73676763 -21.04324902 25.9893953 -22.5625 21.75 C-25.05030791 14.76075376 -25.05030791 14.76075376 -24.83984375 11.578125 C-24 10 -24 10 -21 9 C-17.91910327 11.77280706 -16.31224548 14.06326356 -15 18 C-14.10375404 14.03091073 -13.73925413 10.1369189 -13.4765625 6.0859375 C-12.90302605 3.57554026 -11.94399451 2.63212373 -10 1 C-8.046875 1.6796875 -8.046875 1.6796875 -6 3 C-5.390625 5.3828125 -5.390625 5.3828125 -5.25 8.125 C-5.19328125 9.03507812 -5.1365625 9.94515625 -5.078125 10.8828125 C-5.05234375 11.58148438 -5.0265625 12.28015625 -5 13 C-4.83564453 12.09507813 -4.83564453 12.09507813 -4.66796875 11.171875 C-3.09314587 3.23374341 -3.09314587 3.23374341 0 0 Z M2 17 C3 19 3 19 3 19 Z " fill="#3C406B" transform="translate(112,103)"/>
<path d="M0 0 C11.94710929 8.77248434 19.54105855 21.05868728 22.171875 35.6328125 C22.66397081 39.02622321 23.10628102 42.41639797 23.484375 45.82421875 C24.268125 45.92734375 25.051875 46.03046875 25.859375 46.13671875 C28.484375 46.82421875 28.484375 46.82421875 30.484375 49.82421875 C31.08421957 56.54247796 29.64194835 62.46329007 27.484375 68.82421875 C26.484375 69.82421875 26.484375 69.82421875 23.921875 69.88671875 C23.1175 69.86609375 22.313125 69.84546875 21.484375 69.82421875 C21.319375 70.97921875 21.154375 72.13421875 20.984375 73.32421875 C17.71417774 87.72217057 8.91283554 101.38422833 -3.578125 109.32421875 C-13.26183109 114.52695525 -22.50082615 116.60058578 -33.4765625 114.16796875 C-44.6788621 110.52800585 -54.11840659 102.3188101 -59.515625 91.82421875 C-59.515625 91.16421875 -59.515625 90.50421875 -59.515625 89.82421875 C-60.175625 89.49421875 -60.835625 89.16421875 -61.515625 88.82421875 C-62.3022627 86.87485015 -62.99805557 84.88820353 -63.640625 82.88671875 C-63.99382812 81.80519531 -64.34703125 80.72367187 -64.7109375 79.609375 C-65.515625 76.82421875 -65.515625 76.82421875 -65.515625 74.82421875 C-66.299375 74.86546875 -67.083125 74.90671875 -67.890625 74.94921875 C-70.515625 74.82421875 -70.515625 74.82421875 -72.515625 72.82421875 C-75.29573228 64.95537708 -74.38338309 56.9623825 -73.515625 48.82421875 C-71.535625 48.32921875 -71.535625 48.32921875 -69.515625 47.82421875 C-69.56203125 46.91542969 -69.6084375 46.00664063 -69.65625 45.0703125 C-70.00144503 33.05012835 -68.77463843 21.85873731 -61.515625 11.82421875 C-60.814375 10.83421875 -60.113125 9.84421875 -59.390625 8.82421875 C-45.77470917 -6.88329861 -17.19944381 -11.03007809 0 0 Z " fill="#302E2D" transform="translate(215.515625,44.17578125)"/>
<path d="M0 0 C0.13535156 0.56847656 0.27070313 1.13695313 0.41015625 1.72265625 C1.96205987 7.28906505 3.9611794 10.55762644 8.28125 14.39453125 C12.88779657 18.69746452 12.88779657 18.69746452 13.1796875 22.0859375 C10.99912307 38.46812668 8.64694235 50.56190091 -4.6171875 61.07421875 C-13.656753 67.84763279 -20.36927175 72.52177753 -32 71 C-43.55424394 68.33938497 -54.25436638 63.01520094 -61 53 C-66.21244764 43.3791525 -68.34839597 34.63365931 -68.3125 23.75 C-68.32861328 22.75742188 -68.34472656 21.76484375 -68.36132812 20.7421875 C-68.36197266 19.79085937 -68.36261719 18.83953125 -68.36328125 17.859375 C-68.36626221 16.99795898 -68.36924316 16.13654297 -68.37231445 15.24902344 C-67.92102675 12.52294981 -67.06229737 11.76123443 -65 10 C-63.80400932 7.96767758 -63.80400932 7.96767758 -62.8125 5.8125 C-62.20833333 4.54166667 -61.60416667 3.27083333 -61 2 C-60.30519531 2.06928711 -59.61039063 2.13857422 -58.89453125 2.20996094 C-49.18785852 3.07421158 -39.51711099 3.21948467 -29.77685547 3.24023438 C-26.97725207 3.25008 -24.17834273 3.28127045 -21.37890625 3.3125 C-19.58594179 3.31901943 -17.79297218 3.32427404 -16 3.328125 C-15.16976318 3.3404718 -14.33952637 3.3528186 -13.48413086 3.36553955 C-8.32582791 3.34565475 -4.48238426 0 0 0 Z " fill="#F7DCC7" transform="translate(220,78)"/>
<path d="M0 0 C3.875 1.875 3.875 1.875 5 3 C4.90997602 5.02408755 4.75358962 7.04544287 4.5625 9.0625 C4.46066406 10.16722656 4.35882813 11.27195312 4.25390625 12.41015625 C4.17011719 13.26480469 4.08632812 14.11945313 4 15 C4.556875 14.030625 5.11375 13.06125 5.6875 12.0625 C8 9 8 9 10.6875 8.0625 C11.8321875 8.0315625 11.8321875 8.0315625 13 8 C13.495 8.495 13.495 8.495 14 9 C13.72286623 16.34404482 10.99819396 22.3619322 8 29 C8.99 28.34 9.98 27.68 11 27 C13.6875 26.875 13.6875 26.875 16 27 C16.66 28.65 17.32 30.3 18 32 C17.0925 32.70125 16.185 33.4025 15.25 34.125 C12.92038581 36.0463874 11.70008285 37.45924813 10 40.0625 C7.58332923 43.61198519 5.83093306 45.02494118 2 47 C-1.45587865 47.40518946 -4.78773822 47.19941462 -8.25 46.9375 C-9.61511719 46.8765918 -9.61511719 46.8765918 -11.0078125 46.81445312 C-15.98371725 46.50807323 -15.98371725 46.50807323 -18 46 C-20.36107592 42.45838612 -20.08723753 41.44393047 -19.8125 37.3125 C-19.66485014 30.74208135 -21.09323536 25.47857776 -23.30981445 19.38208008 C-24.26951322 16.68796967 -25.03180717 14.47710758 -24.83984375 11.59765625 C-24 10 -24 10 -21 9 C-17.91910327 11.77280706 -16.31224548 14.06326356 -15 18 C-14.10375404 14.03091073 -13.73925413 10.1369189 -13.4765625 6.0859375 C-12.90302605 3.57554026 -11.94399451 2.63212373 -10 1 C-8.046875 1.6796875 -8.046875 1.6796875 -6 3 C-5.390625 5.3828125 -5.390625 5.3828125 -5.25 8.125 C-5.19328125 9.03507812 -5.1365625 9.94515625 -5.078125 10.8828125 C-5.05234375 11.58148438 -5.0265625 12.28015625 -5 13 C-4.83564453 12.09507813 -4.83564453 12.09507813 -4.66796875 11.171875 C-3.09314587 3.23374341 -3.09314587 3.23374341 0 0 Z M2 17 C3 19 3 19 3 19 Z " fill="#F6DAC5" transform="translate(112,103)"/>
<path d="M0 0 C0.99 0 1.98 0 3 0 C3.33 8.25 3.66 16.5 4 25 C9.5487742 26.2753379 9.5487742 26.2753379 15.09936523 27.54272461 C20.88888889 28.88888889 20.88888889 28.88888889 22 30 C22.62256571 36.2496019 22.27334836 41.5092221 19 47 C15.93057097 50.42597887 13.14396748 52.62601063 8.75 54.0625 C6 54 6 54 4.0625 53 C2.39186568 49.85527657 3.30555838 47.41433796 4 44 C4.36920191 42.00630969 4.71325582 40.00720923 5 38 C4.67 37.67 4.34 37.34 4 37 C3.360625 37.185625 2.72125 37.37125 2.0625 37.5625 C1.381875 37.706875 0.70125 37.85125 0 38 C-2.41389625 35.58610375 -2.59744583 34.34316327 -3 31 C-2.6953125 28.80859375 -2.6953125 28.80859375 -2.125 26.4375 C-0.3531797 17.74600314 -0.32898301 8.83925396 0 0 Z " fill="#F6DBC8" transform="translate(239,281)"/>
<path d="M0 0 C0 15.18 0 30.36 0 46 C-2.97 46.495 -2.97 46.495 -6 47 C-6 31.82 -6 16.64 -6 1 C-4 0 -4 0 0 0 Z " fill="#999DCC" transform="translate(196,164)"/>
<path d="M0 0 C-0.26018256 3.20891827 -0.55902358 4.60802096 -3.00390625 6.78125 C-7.05432492 8.42887793 -10.60340248 8.51415216 -14.9375 8.5 C-15.72318359 8.52835938 -16.50886719 8.55671875 -17.31835938 8.5859375 C-21.52159804 8.60000692 -24.2237269 8.2623992 -27.56640625 5.59375 C-30 3 -30 3 -30 1 C-19.99112106 0.37722531 -10.03411669 -0.17707265 0 0 Z " fill="#A55354" transform="translate(207,133)"/>
<path d="M0 0 C2.97 0.495 2.97 0.495 6 1 C6.33 9.58 6.66 18.16 7 27 C5.35 27 3.7 27 2 27 C-1.31449412 23.68550588 -1.5381678 19.55482003 -2 15 C-1.77895855 1.77895855 -1.77895855 1.77895855 0 0 Z " fill="#E4C1A7" transform="translate(143,92)"/>
<path d="M0 0 C2 0.75 2 0.75 4 3.75 C4.59984457 10.46825921 3.15757335 16.38907132 1 22.75 C0.67 23.08 0.34 23.41 0 23.75 C-1.65 23.75 -3.3 23.75 -5 23.75 C-4.67 16.16 -4.34 8.57 -4 0.75 C-2 -0.25 -2 -0.25 0 0 Z " fill="#E7C6B0" transform="translate(242,90.25)"/>
<path d="M0 0 C1.32 0 2.64 0 4 0 C4 7.59 4 15.18 4 23 C2.68 23.33 1.36 23.66 0 24 C0 16.08 0 8.16 0 0 Z " fill="#8186BB" transform="translate(106,150)"/>
<path d="M0 0 C1.02802734 -0.01224609 2.05605469 -0.02449219 3.11523438 -0.03710938 C4.58766602 -0.04000977 4.58766602 -0.04000977 6.08984375 -0.04296875 C6.99468506 -0.04707764 7.89952637 -0.05118652 8.83178711 -0.05541992 C11.0625 0.1875 11.0625 0.1875 13.0625 2.1875 C8.67597486 4.66667937 4.93279007 4.51959011 0 4.5 C-0.81533203 4.51611328 -1.63066406 4.53222656 -2.47070312 4.54882812 C-3.25509766 4.54947266 -4.03949219 4.55011719 -4.84765625 4.55078125 C-5.56058838 4.55376221 -6.27352051 4.55674316 -7.00805664 4.55981445 C-9.45817711 4.0870277 -10.35700659 3.06381266 -11.9375 1.1875 C-9.51933834 -1.23066166 -3.24972181 0.00202981 0 0 Z " fill="#C5878C" transform="translate(191.9375,136.8125)"/>
<path d="M0 0 C0.99 0 1.98 0 3 0 C3.33 8.58 3.66 17.16 4 26 C2.68 25.67 1.36 25.34 0 25 C-0.78653402 21.59698245 -1.08116649 18.62008956 -0.87890625 15.13671875 C-0.83056641 14.25048828 -0.78222656 13.36425781 -0.73242188 12.45117188 C-0.67634766 11.53916016 -0.62027344 10.62714844 -0.5625 9.6875 C-0.51029297 8.75615234 -0.45808594 7.82480469 -0.40429688 6.86523438 C-0.2751852 4.57643647 -0.14024585 2.28813814 0 0 Z " fill="#9395C4" transform="translate(239,281)"/>
<path d="M0 0 C10.56 0 21.12 0 32 0 C31 2 31 2 28.84765625 2.88671875 C22.19135333 4.80052254 16.82160027 5.228184 10 4 C10 3.34 10 2.68 10 2 C6.7 1.67 3.4 1.34 0 1 C0 0.67 0 0.34 0 0 Z " fill="#A79081" transform="translate(179,82)"/>
<path d="M0 0 C0 7.26 0 14.52 0 22 C-0.33 22 -0.66 22 -1 22 C-1.33 17.05 -1.66 12.1 -2 7 C-2.66 7 -3.32 7 -4 7 C-4.33 13.6 -4.66 20.2 -5 27 C-5.33 27 -5.66 27 -6 27 C-6 18.42 -6 9.84 -6 1 C-4 0 -4 0 0 0 Z " fill="#8487BB" transform="translate(196,164)"/>
<path d="M0 0 C0.99 0.33 1.98 0.66 3 1 C3 6.61 3 12.22 3 18 C1.68 18 0.36 18 -1 18 C-1.02684312 15.18743719 -1.04676188 12.37512759 -1.0625 9.5625 C-1.07087891 8.76005859 -1.07925781 7.95761719 -1.08789062 7.13085938 C-1.0965143 5.08704779 -1.0522815 3.04316098 -1 1 C-0.67 0.67 -0.34 0.34 0 0 Z " fill="#ADB0D5" transform="translate(192,170)"/>
<path d="M0 0 C1.9375 0.25 1.9375 0.25 4 1 C6 4 6 4 5.875 6.5 C4.82064713 9.51243677 3.73439717 10.42565011 1 12 C0.34 12 -0.32 12 -1 12 C-1.02687279 10.18757948 -1.04633715 8.37504767 -1.0625 6.5625 C-1.07410156 5.55316406 -1.08570313 4.54382813 -1.09765625 3.50390625 C-1 1 -1 1 0 0 Z " fill="#F7D3B7" transform="translate(240,90)"/>
<path d="M0 0 C0.33 0 0.66 0 1 0 C1 6.93 1 13.86 1 21 C-0.98 21.33 -2.96 21.66 -5 22 C-5 19.36 -5 16.72 -5 14 C-2.525 14.495 -2.525 14.495 0 15 C0 10.05 0 5.1 0 0 Z " fill="#7E83BA" transform="translate(195,189)"/>
<path d="M0 0 C13.86 0.495 13.86 0.495 28 1 C28 1.33 28 1.66 28 2 C23.71 2 19.42 2 15 2 C15 2.66 15 3.32 15 4 C5.58997722 4.18451025 5.58997722 4.18451025 1 3 C0.67 2.01 0.34 1.02 0 0 Z " fill="#F3D0B6" transform="translate(174,82)"/>
<path d="M0 0 C0.66 0.33 1.32 0.66 2 1 C1.50130596 6.36891879 0.97772468 11.69235173 0 17 C-0.66 16.67 -1.32 16.34 -2 16 C-2 11.05 -2 6.1 -2 1 C-1.34 0.67 -0.68 0.34 0 0 Z " fill="#E8C7AF" transform="translate(231,97)"/>
<path d="M0 0 C0.33 0 0.66 0 1 0 C0.14285714 8.57142857 0.14285714 8.57142857 -2 12 C-3.65 12 -5.3 12 -7 12 C-6.75 9.125 -6.75 9.125 -6 6 C-4.0625 4.875 -4.0625 4.875 -2 4 C-0.73195434 1.9664052 -0.73195434 1.9664052 0 0 Z " fill="#F0D3BF" transform="translate(244,102)"/>
<path d="M0 0 C1.67542976 0.28604898 3.34385343 0.61781233 5 1 C3.3865524 5.84034281 1.30787513 10.45418534 -1 15 C-1.02685412 12.68756208 -1.04632841 10.3750373 -1.0625 8.0625 C-1.07410156 6.77472656 -1.08570313 5.48695312 -1.09765625 4.16015625 C-1 1 -1 1 0 0 Z " fill="#F8D8C0" transform="translate(143,92)"/>
<path d="M0 0 C0.33 0 0.66 0 1 0 C1.06058594 1.09699219 1.12117187 2.19398437 1.18359375 3.32421875 C1.26804498 4.77865654 1.35269066 6.23308305 1.4375 7.6875 C1.47681641 8.40873047 1.51613281 9.12996094 1.55664062 9.87304688 C1.78185678 13.66707282 2.12839305 17.28651492 3 21 C2.01 21 1.02 21 0 21 C-1.0625 19.1875 -1.0625 19.1875 -2 17 C-1.505 15.515 -1.505 15.515 -1 14 C-0.77439324 11.60745424 -0.59151405 9.21071877 -0.4375 6.8125 C-0.35371094 5.54019531 -0.26992187 4.26789063 -0.18359375 2.95703125 C-0.12300781 1.98121094 -0.06242188 1.00539063 0 0 Z " fill="#75675C" transform="translate(151,97)"/>
<path d="M0 0 C2.49361571 1.20381448 4.68143083 2.45428722 7 4 C7 4.99 7 5.98 7 7 C4.625 7.125 4.625 7.125 2 7 C0 5 0 5 -0.125 2.375 C-0.08375 1.59125 -0.0425 0.8075 0 0 Z " fill="#F4D6C0" transform="translate(143,112)"/>
<path d="M0 0 C1.875 0.3125 1.875 0.3125 4 1 C6 4 6 4 5.625 6.1875 C5.41875 6.785625 5.2125 7.38375 5 8 C4.566875 7.34 4.13375 6.68 3.6875 6 C2.8521875 5.01 2.8521875 5.01 2 4 C1.01 4 0.02 4 -1 4 C-0.67 2.68 -0.34 1.36 0 0 Z " fill="#F9DBC6" transform="translate(240,90)"/>
<path d="M0 0 C0.33 0 0.66 0 1 0 C1 2.64 1 5.28 1 8 C-0.32 8.33 -1.64 8.66 -3 9 C-3 7.35 -3 5.7 -3 4 C-2.34 4 -1.68 4 -1 4 C-0.67 2.68 -0.34 1.36 0 0 Z " fill="#6B70A7" transform="translate(109,165)"/>
<path d="M0 0 C0.33 0 0.66 0 1 0 C1.33 3.63 1.66 7.26 2 11 C0.68 10.67 -0.64 10.34 -2 10 C-2.33 9.01 -2.66 8.02 -3 7 C-2.34 7 -1.68 7 -1 7 C-0.67 4.69 -0.34 2.38 0 0 Z " fill="#8284B5" transform="translate(241,296)"/>
<path d="M0 0 C0.99 0.66 1.98 1.32 3 2 C2.25 3.9375 2.25 3.9375 1 6 C-1.125 6.75 -1.125 6.75 -3 7 C-2.01 4.69 -1.02 2.38 0 0 Z " fill="#F8D5BA" transform="translate(111,137)"/>
</svg>
